<svg width="43" height="30" viewBox="0 0 43 30" fill="none" xmlns="http://www.w3.org/2000/svg">
<path d="M42.1009 4.68486C41.6054 2.83984 40.1505 1.38993 38.2992 0.896049C34.9473 2.68221e-07 21.4999 0 21.4999 0C21.4999 0 8.05276 2.68221e-07 4.70068 0.896049C2.84944 1.38993 1.39463 2.83984 0.899078 4.68486C2.69127e-07 8.02563 0 15 0 15C0 15 2.69127e-07 21.9744 0.899078 25.3152C1.39463 27.1602 2.84944 28.6101 4.70068 29.1039C8.05276 30 21.4999 30 21.4999 30C21.4999 30 34.9473 30 38.2992 29.1039C40.1505 28.6101 41.6054 27.1602 42.1009 25.3152C43 21.9744 43 15 43 15C43 15 42.9964 8.02563 42.1009 4.68486Z" fill="#18A1FD"/>
<path d="M17.1959 21.4281L28.3671 15.0006L17.1959 8.573V21.4281Z" fill="#D9D9D9"/>
</svg>
