<svg width="45" height="50" viewBox="0 0 45 50" fill="none" xmlns="http://www.w3.org/2000/svg">
<path fill-rule="evenodd" clip-rule="evenodd" d="M21.2009 0.340811C22.0049 -0.11276 22.9949 -0.11276 23.7978 0.340811C27.7709 2.58248 39.7266 9.33009 43.7008 11.5718C44.5049 12.0241 44.9999 12.8622 44.9999 13.7694C44.9999 18.2527 44.9999 31.7467 44.9999 36.2301C44.9999 37.1372 44.5049 37.9753 43.7008 38.4289C39.7278 40.6705 27.772 47.4182 23.7978 49.6598C22.9938 50.1134 22.0038 50.1134 21.2009 49.6598C17.2279 47.4182 5.27209 40.6705 1.29789 38.4289C0.494999 37.9753 0 37.1384 0 36.2313C0 31.7479 0 18.2539 0 13.7706C0 12.8634 0.494999 12.0253 1.29908 11.5718C5.27091 9.33009 17.229 2.58248 21.2009 0.340811Z" fill="#004482"/>
<path fill-rule="evenodd" clip-rule="evenodd" d="M0.359999 37.386C0.0449999 36.9622 0 36.5598 0 36.0182C0 31.561 0 18.1444 0 13.686C0 12.7837 0.493815 11.9503 1.29552 11.5003C5.25433 9.27176 17.1698 2.56343 21.1286 0.333668C21.9303 -0.117522 23.0163 -0.107998 23.818 0.343192C27.7768 2.57176 39.652 9.22295 43.6108 11.4515C43.9306 11.6325 44.1745 11.8503 44.3924 12.1372L0.359999 37.386Z" fill="#659AD2"/>
<path fill-rule="evenodd" clip-rule="evenodd" d="M22.4999 8.33366C31.6503 8.33366 39.0789 15.8015 39.0789 25.0003C39.0789 34.1991 31.6503 41.667 22.4999 41.667C13.3496 41.667 5.92104 34.1991 5.92104 25.0003C5.92104 15.8015 13.3496 8.33366 22.4999 8.33366ZM22.4999 16.667C27.0745 16.667 30.7894 20.4003 30.7894 25.0003C30.7894 29.5991 27.0745 33.3336 22.4999 33.3336C17.9254 33.3336 14.2105 29.5991 14.2105 25.0003C14.2105 20.4003 17.9242 16.667 22.4999 16.667Z" fill="white"/>
<path fill-rule="evenodd" clip-rule="evenodd" d="M44.39 12.1491C45.0011 12.7241 44.9892 13.5908 44.9892 14.2729C44.9892 18.7908 44.9513 31.6408 44.9999 36.1586C45.0046 36.6301 44.8495 37.1265 44.6174 37.5003L22.018 25.0003L44.39 12.1491Z" fill="#00599C"/>
</svg>
