<svg width="44" height="50" viewBox="0 0 44 50" fill="none" xmlns="http://www.w3.org/2000/svg">
<path d="M43.4402 37.5C43.7855 36.8961 44 36.2157 44 35.6047V14.3953C44 13.7843 43.7858 13.104 43.4404 12.5001L22 25.0001L43.4402 37.5Z" fill="#00599C"/>
<path d="M23.9052 49.5417L42.0948 38.9371C42.6187 38.6316 43.095 38.1041 43.4402 37.5L22 25.0001L0.559778 37.5002C0.90502 38.1041 1.3814 38.6317 1.90523 38.9371L20.0948 49.5417C21.1426 50.1527 22.8574 50.1527 23.9052 49.5417Z" fill="#004482"/>
<path d="M43.4404 12.5001C43.095 11.8961 42.6186 11.3684 42.0948 11.0629L23.9052 0.458256C22.8574 -0.152752 21.1426 -0.152752 20.0948 0.458256L1.90523 11.0629C0.857281 11.6738 0 13.1734 0 14.3953V35.6047C0 36.2157 0.214392 36.8961 0.559778 37.5L22 25.0001L43.4404 12.5001Z" fill="#659AD2"/>
<path d="M22 39.8106C13.9128 39.8106 7.33333 33.1666 7.33333 25.0001C7.33333 16.8335 13.9128 10.1895 22 10.1895C27.2185 10.1895 32.0853 13.0253 34.7012 17.5901L28.3538 21.2992C27.0446 19.0143 24.6098 17.5948 22 17.5948C17.9563 17.5948 14.6667 20.9167 14.6667 25.0001C14.6667 29.0833 17.9563 32.4053 22 32.4053C24.6101 32.4053 27.0449 30.9859 28.3543 28.7005L34.7016 32.4094C32.0858 36.9747 27.2187 39.8106 22 39.8106Z" fill="white"/>
<path d="M36.6667 24.1772H35.0369V22.5316H33.4075V24.1772H31.7778V25.8228H33.4075V27.4685H35.0369V25.8228H36.6667V24.1772Z" fill="white"/>
<path d="M42.7778 24.1772H41.1481V22.5316H39.5186V24.1772H37.8889V25.8228H39.5186V27.4685H41.1481V25.8228H42.7778V24.1772Z" fill="white"/>
</svg>
