<svg width="50" height="50" viewBox="0 0 50 50" fill="none" xmlns="http://www.w3.org/2000/svg">
<path d="M0 0H42C44.1217 0 46.1566 0.842855 47.6569 2.34315C49.1571 3.84344 50 5.87827 50 8V42C50 44.1217 49.1571 46.1566 47.6569 47.6569C46.1566 49.1571 44.1217 50 42 50H8C5.87827 50 3.84344 49.1571 2.34315 47.6569C0.842855 46.1566 0 44.1217 0 42V0Z" fill="#663399"/>
<path d="M17.905 46C14.6935 45.997 12.712 44.1885 12.75 40.8605V32.441C12.75 30.754 13.244 29.471 14.232 28.593C16.0065 26.8835 20.1235 26.7795 21.8615 28.619C22.9325 29.5635 23.3365 31.493 23.2405 33.2935H19.5545C19.5825 32.586 19.545 31.5145 19.129 31.111C18.5885 30.3795 17.161 30.4655 16.7835 31.227C16.5515 31.64 16.4355 32.2515 16.4355 33.0605V40.3695C16.4355 41.902 16.968 42.677 18.0335 42.694C18.5315 42.694 18.91 42.513 19.1675 42.1515C19.527 41.7225 19.583 40.7725 19.554 40.0855H23.24C23.492 43.589 21.424 46.0435 17.9045 46H17.905ZM29.607 46C26.0485 46.049 24.4565 43.517 24.555 40.0855H28.0345C27.938 41.5815 28.452 42.944 29.684 42.849C30.2335 42.849 30.6205 42.677 30.844 42.3325C31.269 41.703 31.3485 39.885 30.741 39.1815C30.3165 38.504 28.7895 37.906 27.983 37.503C26.8315 36.952 26.0025 36.298 25.4955 35.54C24.352 33.858 24.458 30.166 26.0625 28.67C27.6215 26.824 31.693 26.739 33.2535 28.6315C34.216 29.607 34.6365 31.5265 34.555 33.293H31.204C31.2325 32.567 31.164 31.3955 30.882 30.9685C30.6845 30.607 30.3105 30.426 29.761 30.426C28.7815 30.426 28.292 31.0115 28.292 32.182C28.3025 33.425 28.787 33.935 29.916 34.4545C31.378 35.0225 33.237 35.9925 33.911 37.1665C35.921 40.7435 34.542 46.2075 29.6065 45.999L29.607 46ZM40.845 46C37.2865 46.049 35.6945 43.517 35.793 40.0855H39.2725C39.176 41.5815 39.69 42.944 40.922 42.849C41.4715 42.849 41.8585 42.677 42.082 42.3325C42.507 41.703 42.5865 39.885 41.979 39.1815C41.5545 38.504 40.0275 37.906 39.221 37.503C38.0695 36.952 37.2405 36.298 36.7335 35.54C35.59 33.858 35.696 30.166 37.3005 28.67C38.8595 26.824 42.931 26.739 44.4915 28.6315C45.454 29.607 45.8745 31.5265 45.793 33.293H42.442C42.4705 32.567 42.402 31.3955 42.12 30.9685C41.9225 30.607 41.5485 30.426 40.999 30.426C40.0195 30.426 39.53 31.0115 39.53 32.182C39.5405 33.425 40.025 33.935 41.154 34.4545C42.616 35.0225 44.475 35.9925 45.149 37.1665C47.159 40.7435 45.78 46.2075 40.8445 45.999L40.845 46Z" fill="white"/>
</svg>
