<svg width="50" height="50" viewBox="0 0 50 50" fill="none" xmlns="http://www.w3.org/2000/svg">
<path d="M27.6661 43.739L26.8194 45.7948C26.6512 46.2017 26.2666 46.4773 25.8338 46.4961C25.548 46.5068 25.2595 46.5148 24.9684 46.5148C15.0027 46.5095 6.18549 39.4615 4.00055 29.75L0.608272 30.5182C1.83429 35.9655 4.91139 40.9096 9.27325 44.443C13.6858 48.0165 19.2443 49.9893 24.931 50H24.9818C25.3156 50 25.6469 49.992 25.978 49.9787C27.7623 49.9037 29.3569 48.7821 30.0381 47.1198L31.1439 44.4323L27.6661 43.739Z" fill="url(#paint0_linear_19_434)"/>
<path d="M0.886815 31.6239C0.299176 29.4772 0 27.2473 0 25.0015C0 14.7493 6.41857 5.37511 15.973 1.67847L17.2258 4.9308C9.0015 8.11352 3.47774 16.1787 3.47774 25.0015C3.47774 26.9368 3.73415 28.8534 4.23898 30.7003L0.886815 31.6239Z" fill="url(#paint1_linear_19_434)"/>
<path d="M44.0806 15.0972C40.3624 7.93671 33.0438 3.48788 24.9852 3.48788C22.1298 3.48788 19.3546 4.0393 16.7422 5.12341L15.4094 1.9032C18.4465 0.642432 21.6677 0 24.9852 0C34.3473 0 42.8466 5.16623 47.1657 13.4858L44.0806 15.0972Z" fill="url(#paint2_linear_19_434)"/>
<path d="M17.525 19.8431C19.5417 19.8431 21.1844 20.9218 22.0284 22.8036L22.0952 22.9509L25.4821 21.7972L25.4099 21.6232C24.0984 18.419 21.0775 16.4274 17.525 16.4274C15.0276 16.4274 12.9975 17.2306 11.3201 18.8794C9.65336 20.5176 8.80932 22.5788 8.80932 25.0066C8.80932 27.4131 9.65336 29.4635 11.3201 31.1017C12.9975 32.7507 15.0276 33.5537 17.525 33.5537C21.0775 33.5537 24.0984 31.5622 25.4099 28.3607L25.4821 28.1867L22.0899 27.0302L22.0257 27.1828C21.2699 29.0325 19.587 30.1381 17.525 30.1381C16.1201 30.1381 14.9341 29.6456 13.9938 28.6765C13.043 27.6941 12.5622 26.4601 12.5622 25.0093C12.5622 23.5477 13.0323 22.3378 13.9938 21.3099C14.9314 20.3357 16.1201 19.8431 17.525 19.8431Z" fill="white"/>
<path d="M38.7386 16.7434L33.912 28.9951L29.0533 16.7434H25.0787L31.8926 33.4654L27.0446 45.2594L30.5197 45.9527L42.4941 16.7434H38.7386Z" fill="white"/>
<path d="M47.1657 13.4858C48.9241 16.9112 50 20.9345 50 25.0528C50 34.6622 44.5955 43.0053 36.6693 47.1902L34.9568 44.1535C41.83 40.5691 46.5246 33.3609 46.5246 25.0528C46.5246 21.4476 45.6431 18.0819 44.0806 15.0972L47.1657 13.4858Z" fill="url(#paint3_linear_19_434)"/>
<defs>
<linearGradient id="paint0_linear_19_434" x1="315.995" y1="2201.42" x2="4376.01" y2="2920.32" gradientUnits="userSpaceOnUse">
<stop stop-color="#315C55"/>
<stop offset="1" stop-color="#09293F"/>
</linearGradient>
<linearGradient id="paint1_linear_19_434" x1="2714.87" y1="1363.1" x2="2500" y2="5000" gradientUnits="userSpaceOnUse">
<stop stop-color="#4FB38D"/>
<stop offset="1" stop-color="#315C55"/>
</linearGradient>
<linearGradient id="paint2_linear_19_434" x1="695.449" y1="2500.01" x2="3540.97" y2="2747.98" gradientUnits="userSpaceOnUse">
<stop stop-color="#4FB38D"/>
<stop offset="1" stop-color="#97DEC0"/>
</linearGradient>
<linearGradient id="paint3_linear_19_434" x1="845.176" y1="1054.69" x2="-115.487" y2="2853.38" gradientUnits="userSpaceOnUse">
<stop stop-color="#97DEC0"/>
<stop offset="1" stop-color="#FFFFF0" stop-opacity="0"/>
</linearGradient>
</defs>
</svg>
