<svg width="44" height="50" viewBox="0 0 44 50" fill="none" xmlns="http://www.w3.org/2000/svg">
<path d="M2.19066 37.048L4.00556 38.1078L24.2242 2.69155L22.4093 1.63179L2.19066 37.048Z" fill="#E535AB"/>
<path d="M42.2123 34.2186H1.77506V36.3381H42.2123V34.2186Z" fill="#E535AB"/>
<path d="M2.57521 35.4093L22.8014 47.2198L23.8493 45.3843L3.62306 33.5738L2.57521 35.4093Z" fill="#E535AB"/>
<path d="M20.1457 4.62803L40.3719 16.4385L41.4198 14.6031L21.1936 2.79253L20.1457 4.62803Z" fill="#E535AB"/>
<path d="M2.58081 14.595L3.62867 16.4305L23.8549 4.61996L22.807 2.78446L2.58081 14.595Z" fill="#E535AB"/>
<path d="M19.7804 2.69193L39.999 38.1081L41.8139 37.0484L21.5953 1.63218L19.7804 2.69193Z" fill="#E535AB"/>
<path d="M5.47412 13.1895H3.37841V36.8105H5.47412V13.1895Z" fill="#E535AB"/>
<path d="M40.6216 13.1895H38.5259V36.8105H40.6216V13.1895Z" fill="#E535AB"/>
<path d="M21.5293 44.7194L22.4446 46.3227L40.036 36.0507L39.1207 34.4474L21.5293 44.7194Z" fill="#E535AB"/>
<path d="M43.399 37.5C42.1871 39.6323 39.4854 40.3601 37.377 39.1343C35.2687 37.9086 34.5491 35.1762 35.761 33.0439C36.973 30.9116 39.6747 30.1839 41.7831 31.4096C43.904 32.6481 44.6237 35.3677 43.399 37.5Z" fill="#E535AB"/>
<path d="M8.22633 16.9561C7.01435 19.0884 4.31264 19.8161 2.2043 18.5904C0.095957 17.3647 -0.623657 14.6323 0.588324 12.5C1.80031 10.3677 4.50201 9.63994 6.61036 10.8657C8.7187 12.1042 9.43832 14.8238 8.22633 16.9561Z" fill="#E535AB"/>
<path d="M0.600949 37.5C-0.611032 35.3677 0.108582 32.6481 2.21692 31.4096C4.32527 30.1839 7.01435 30.9116 8.23896 33.0439C9.45094 35.1762 8.73133 37.8958 6.62298 39.1343C4.50201 40.3601 1.81293 39.6323 0.600949 37.5Z" fill="#E535AB"/>
<path d="M35.7737 16.9561C34.5617 14.8238 35.2813 12.1042 37.3896 10.8657C39.498 9.63994 42.1871 10.3677 43.4117 12.5C44.6237 14.6323 43.904 17.3519 41.7957 18.5904C39.6874 19.8161 36.9856 19.0884 35.7737 16.9561Z" fill="#E535AB"/>
<path d="M22 50C19.5634 50 17.5939 48.0082 17.5939 45.5439C17.5939 43.0797 19.5634 41.0878 22 41.0878C24.4366 41.0878 26.4061 43.0797 26.4061 45.5439C26.4061 47.9954 24.4366 50 22 50Z" fill="#E535AB"/>
<path d="M22 8.91216C19.5634 8.91216 17.5939 6.92033 17.5939 4.45608C17.5939 1.99183 19.5634 0 22 0C24.4366 0 26.4061 1.99183 26.4061 4.45608C26.4061 6.92033 24.4366 8.91216 22 8.91216Z" fill="#E535AB"/>
</svg>
