<svg width="20" height="21" viewBox="0 0 20 21" fill="none" xmlns="http://www.w3.org/2000/svg">
<path d="M16.6008 0.5C16.8121 0.615098 16.8795 0.791131 16.8784 1.03122C16.8706 2.61968 16.8742 4.20762 16.8742 5.79608C16.8742 5.84816 16.8769 5.90076 16.8716 5.95232C16.8518 6.16533 16.6916 6.31793 16.4876 6.32001C16.2757 6.32209 16.1056 6.16481 16.0957 5.94138C16.0868 5.73358 16.0925 5.52474 16.0925 5.31642C16.0925 4.6852 16.0925 4.05398 16.0925 3.40662H3.92037V4.48156H4.15258C6.99081 4.48156 9.82851 4.48156 12.6667 4.48156C13.0852 4.48156 13.2027 4.5977 13.2027 5.01227C13.2027 6.79603 13.2027 8.57927 13.2027 10.363C13.2027 10.7656 13.0795 10.8906 12.6808 10.8906C9.8426 10.8906 7.0049 10.8906 4.16667 10.8906C4.08944 10.8906 4.01169 10.8906 3.92037 10.8906V19.7063H16.0832V18.397H15.8301C13.0049 18.397 10.1802 18.397 7.35505 18.397C6.90053 18.397 6.79721 18.2918 6.79721 17.8303C6.79721 16.0534 6.79721 14.2764 6.79721 12.4994C6.79721 12.1166 6.92819 11.9874 7.31643 11.9874C10.1547 11.9874 12.9924 11.9874 15.8306 11.9874H16.0936C16.0936 11.9109 16.0936 11.8421 16.0936 11.7739C16.0936 11.0187 16.0925 10.2636 16.0941 9.50891C16.0941 9.27558 16.1938 9.12872 16.3806 9.07351C16.6384 8.99695 16.8722 9.19174 16.8737 9.4938C16.8769 10.249 16.8748 11.0041 16.8748 11.7588C16.8748 11.8286 16.8748 11.8984 16.8748 11.9879C17.0736 11.9879 17.2541 11.9879 17.4347 11.9879C18.1115 11.9879 18.7888 11.9952 19.4656 11.9838C19.7041 11.9796 19.8815 12.0504 20 12.2582V18.1173C19.8946 18.3381 19.7172 18.4043 19.4782 18.4017C18.6866 18.3918 17.8949 18.398 17.1033 18.398C17.0339 18.398 16.9645 18.398 16.8748 18.398C16.8748 18.9365 16.8654 19.4542 16.8789 19.9709C16.8852 20.211 16.8111 20.3849 16.6013 20.5H3.39802C3.18668 20.3849 3.11988 20.2094 3.12041 19.9693C3.12667 17.0215 3.12458 14.0738 3.12458 11.126V10.8911C2.22495 10.8911 1.35349 10.8916 0.482561 10.8911C0.137111 10.8911 0.000391372 10.7521 0.000391372 10.4031C-0.000130457 8.5876 -0.000130457 6.77207 0.000391372 4.95654C0.000391372 4.62114 0.138676 4.48365 0.475256 4.48313C1.20425 4.48208 1.93272 4.48313 2.66172 4.48313C2.80992 4.48313 2.9576 4.48313 3.12458 4.48313V4.25397C3.12458 3.18007 3.13032 2.10669 3.12041 1.03278C3.11832 0.792693 3.18616 0.616661 3.39802 0.502083H16.6008V0.5ZM0.789918 10.0953H12.4063V5.27319H0.789918V10.0953ZM7.58674 17.6012H19.2021V12.779H7.58674V17.6012ZM12.9976 1.29215H3.91933V2.5952H12.9976V1.29215ZM16.0847 1.29527H13.8043V2.59937H16.0847V1.29527Z" fill="white"/>
<path d="M16.8729 7.67514C16.8781 7.8892 16.6975 8.0746 16.4836 8.0746C16.2774 8.0746 16.1 7.90065 16.0948 7.69389C16.0896 7.48609 16.2561 7.30693 16.4648 7.29704C16.6813 7.28662 16.8676 7.45901 16.8729 7.67514Z" fill="white"/>
<path d="M3.63113 6.35649C4.06686 6.35649 4.50206 6.35492 4.93779 6.35701C5.24567 6.35857 5.38865 6.50283 5.38969 6.81323C5.39178 7.39185 5.39178 7.96994 5.38969 8.54856C5.38865 8.86625 5.24306 9.01103 4.92057 9.01156C4.06268 9.01312 3.2048 9.01312 2.34639 9.01156C2.02337 9.01103 1.87622 8.86677 1.87518 8.55064C1.87309 7.97203 1.87361 7.39393 1.87518 6.81532C1.87622 6.49658 2.01868 6.35753 2.3443 6.35649C2.77324 6.35492 3.20219 6.35649 3.63113 6.35649ZM4.59808 8.22201V7.14967H2.67044V8.22201H4.59808Z" fill="white"/>
<path d="M8.90971 7.13715C8.2856 7.13715 7.66201 7.13715 7.03791 7.13715C6.98572 7.13715 6.93354 7.13923 6.88188 7.13611C6.64706 7.12049 6.48216 6.95435 6.48581 6.73873C6.48894 6.52052 6.65384 6.36115 6.8944 6.35803C7.25186 6.35334 7.60931 6.35646 7.96676 6.35646C8.88309 6.35646 9.79943 6.35646 10.7158 6.35646C11.1447 6.35646 11.331 6.47677 11.3263 6.75071C11.3216 7.01684 11.1343 7.13715 10.7231 7.13715C10.1188 7.13715 9.51451 7.13715 8.90971 7.13715Z" fill="white"/>
<path d="M8.91539 8.23192C9.58489 8.23192 10.2544 8.22931 10.9234 8.23348C11.1619 8.23504 11.3262 8.40014 11.3262 8.6194C11.3262 8.82772 11.1676 8.99125 10.9437 9.01052C10.8921 9.01469 10.8399 9.0126 10.7877 9.0126C9.53323 9.0126 8.27928 9.0126 7.0248 9.0126C6.98566 9.0126 6.94653 9.01365 6.90791 9.0126C6.65796 9.00271 6.48627 8.84282 6.48575 8.62096C6.48575 8.39545 6.6543 8.23452 6.90687 8.23348C7.57638 8.23035 8.24536 8.23244 8.91487 8.23296L8.91539 8.23192Z" fill="white"/>
<path d="M10.4223 16.5174C9.98662 16.5174 9.55141 16.5195 9.11568 16.5169C8.81981 16.5153 8.6737 16.3685 8.67213 16.0716C8.66952 15.4867 8.67004 14.9019 8.67213 14.3165C8.67317 14.0113 8.82189 13.8629 9.12977 13.8623C9.99444 13.8603 10.8586 13.8603 11.7233 13.8623C12.0411 13.8629 12.1856 14.0102 12.1866 14.3305C12.1882 14.9092 12.1887 15.4872 12.1866 16.0659C12.1856 16.3726 12.0395 16.5153 11.729 16.5169C11.2933 16.519 10.8581 16.5169 10.4223 16.5169V16.5174ZM9.46166 15.7221H11.3893V14.6534H9.46166V15.7221Z" fill="white"/>
<path d="M15.7006 14.643C15.0509 14.643 14.4007 14.6441 13.751 14.643C13.4619 14.6425 13.2876 14.4988 13.2824 14.2623C13.2772 14.0217 13.4619 13.8629 13.7552 13.8629C15.0551 13.8618 16.355 13.8618 17.6543 13.8629C17.9403 13.8629 18.1177 14.0118 18.1229 14.2467C18.1281 14.4894 17.9476 14.6425 17.6507 14.643C17.001 14.6441 16.3508 14.643 15.7011 14.643H15.7006Z" fill="white"/>
<path d="M15.7047 16.5179C15.0551 16.5179 14.4049 16.5185 13.7552 16.5179C13.4567 16.5179 13.2777 16.3659 13.2824 16.1221C13.2871 15.8888 13.4666 15.7378 13.7505 15.7378C15.0566 15.7367 16.3628 15.7367 17.6694 15.7378C17.9251 15.7378 18.0911 15.8675 18.1203 16.0784C18.1459 16.2607 18.0284 16.4487 17.8468 16.4992C17.7795 16.5179 17.7054 16.5174 17.6345 16.5174C16.991 16.5185 16.3476 16.5179 15.7042 16.5179H15.7047Z" fill="white"/>
</svg>
