<svg width="18" height="21" viewBox="0 0 18 21" fill="none" xmlns="http://www.w3.org/2000/svg">
<path d="M12.0806 20.5H5.92035C5.66864 20.3531 5.58687 20.2042 5.64406 19.9995C5.69696 19.812 5.85729 19.7198 6.13465 19.7193C6.39865 19.7193 6.66265 19.7193 6.93521 19.7193C7.07255 18.9901 7.20616 18.2839 7.34457 17.5484C7.23555 17.5484 7.15753 17.5484 7.0795 17.5484C5.5003 17.5484 3.92109 17.5495 2.34189 17.5469C2.15591 17.5469 1.9662 17.5422 1.78556 17.5057C0.708177 17.2906 0.00274588 16.4333 0.00167705 15.3401C-0.000995037 12.6333 7.37977e-05 9.92656 0.00114263 7.21979C0.00114263 5.87188 0.941183 4.95521 2.32212 4.95312C2.50649 4.95312 2.69033 4.95312 2.88807 4.95312C2.88807 4.85052 2.88807 4.77344 2.88807 4.69635C2.88807 3.70729 2.88539 2.71823 2.88913 1.72917C2.89127 1.1349 3.22315 0.703646 3.79123 0.538542C3.82169 0.529688 3.85002 0.513021 3.87941 0.5C7.29327 0.5 10.7066 0.5 14.1204 0.5C14.921 0.817708 15.1123 1.1 15.1123 1.96354C15.1123 2.8875 15.1123 3.81146 15.1123 4.73542C15.1123 4.80365 15.1123 4.8724 15.1123 4.95312C15.3341 4.95312 15.526 4.9526 15.7184 4.95312C17.0491 4.95885 17.9976 5.88229 17.9987 7.18073C18.0009 9.89375 18.0003 12.6073 17.9971 15.3203C17.9971 15.5073 17.9811 15.699 17.9373 15.8807C17.6936 16.8964 16.8315 17.5438 15.7189 17.5464C14.1199 17.5505 12.5204 17.5474 10.9214 17.5474C10.8434 17.5474 10.7654 17.5474 10.6558 17.5474C10.7958 18.288 10.9305 18.9995 11.0663 19.7182C11.38 19.7182 11.6728 19.7125 11.9651 19.7198C12.2259 19.726 12.3873 19.9109 12.366 20.1531C12.3505 20.3339 12.2217 20.4203 12.08 20.4984L12.0806 20.5ZM3.70038 3.30729V14.7198H14.2973V3.30729H3.70038ZM17.1827 15.538H0.803838C0.828955 15.6432 0.84285 15.726 0.868502 15.8063C1.05982 16.4073 1.58516 16.7661 2.28471 16.7667C6.76313 16.7677 11.2415 16.7672 15.72 16.7667C15.7798 16.7667 15.8397 16.7646 15.8995 16.7599C16.5814 16.7109 17.1004 16.2229 17.1827 15.538ZM2.87257 14.7255V7.78021H0.811854V14.7255H2.87257ZM17.1864 14.724V7.77865H15.1236V14.724H17.1864ZM3.69397 2.49479H14.2973C14.3048 2.46302 14.3102 2.45 14.3102 2.4375C14.3112 2.22917 14.3128 2.02135 14.3123 1.81302C14.3118 1.40625 14.1814 1.28125 13.7586 1.28125C10.5874 1.28125 7.41618 1.28125 4.24495 1.28125C4.19151 1.28125 4.13807 1.27917 4.08516 1.28281C3.87193 1.29792 3.71107 1.42708 3.69824 1.6349C3.68114 1.91823 3.69397 2.20365 3.69397 2.49479ZM10.2502 19.7104C10.1187 19.0135 9.99261 18.3365 9.85847 17.6609C9.84992 17.6172 9.77724 17.5542 9.73395 17.5536C9.21503 17.5464 8.69611 17.549 8.16063 17.549C8.02328 18.2734 7.88807 18.9859 7.75019 19.7109H10.2507L10.2502 19.7104ZM2.8731 6.97813V5.74792C1.64234 5.63542 0.824145 6.12969 0.82949 6.97813H2.8731ZM15.1214 6.97656H17.1779C17.1469 6.41094 16.715 5.89115 16.1389 5.78385C15.8108 5.72292 15.4682 5.73698 15.1219 5.71667V6.97656H15.1214Z" fill="white"/>
<path d="M4.19264 9.89062C4.19264 8.86927 4.1921 7.84792 4.19264 6.82656C4.19317 6.17396 4.56406 5.81094 5.22887 5.8099C5.80177 5.80885 6.37466 5.80781 6.94756 5.8099C7.53756 5.8125 7.93409 6.17969 7.9357 6.75677C7.94211 8.85156 7.94211 10.9464 7.9357 13.0411C7.93409 13.6187 7.54183 13.9849 6.94916 13.9885C6.35649 13.9922 5.76329 13.9932 5.17062 13.9885C4.57956 13.9839 4.19531 13.6094 4.19371 13.0328C4.18997 11.9854 4.19264 10.938 4.19264 9.89062ZM7.13942 9.9151C7.13942 8.89427 7.13781 7.87292 7.14102 6.85208C7.14155 6.68333 7.10842 6.58385 6.89946 6.5875C6.34046 6.5974 5.78039 6.59531 5.22139 6.58854C5.04503 6.58646 4.98999 6.65573 4.99052 6.82083C4.99373 8.87604 4.99426 10.9312 4.99052 12.9859C4.99052 13.1594 5.0616 13.2125 5.22887 13.2109C5.7681 13.2052 6.30786 13.2094 6.84709 13.2089C7.12231 13.2089 7.13888 13.1922 7.13942 12.9203C7.13995 11.9187 7.13942 10.9172 7.13942 9.91562V9.9151Z" fill="white"/>
<path d="M11.1978 5.8099C11.7306 5.8099 12.2639 5.80781 12.7968 5.81042C13.3739 5.81354 13.7662 6.18333 13.7737 6.7474C13.7828 7.40417 13.7822 8.06146 13.7737 8.71875C13.7667 9.275 13.391 9.65261 12.8187 9.65833C11.7327 9.66979 10.6468 9.67031 9.56086 9.65833C8.97354 9.65208 8.60212 9.25885 8.60051 8.68177C8.59891 8.05052 8.59891 7.41979 8.60051 6.78854C8.60212 6.19271 8.98957 5.8125 9.59827 5.8099C10.1311 5.80781 10.6644 5.8099 11.1972 5.8099H11.1978ZM9.40054 7.65625C9.57636 7.51615 9.71531 7.39792 9.86227 7.28958C10.2219 7.02344 10.6719 7.0276 11.0257 7.29896C11.1513 7.39531 11.2806 7.49011 11.3912 7.60156C11.5361 7.7474 11.6542 7.72917 11.7963 7.5974C12.1084 7.30677 12.4692 7.25313 12.8657 7.41615C12.8946 7.42812 12.9256 7.43438 12.9758 7.44948C12.9758 7.20833 12.9769 6.98125 12.9758 6.75469C12.9747 6.62917 12.8994 6.58958 12.7802 6.5901C11.7215 6.59167 10.6628 6.59167 9.60415 6.5901C9.45986 6.5901 9.39893 6.65104 9.40107 6.7901C9.40481 7.06302 9.40214 7.33594 9.40214 7.65625H9.40054ZM11.1801 8.88125C11.6991 8.88125 12.2185 8.88594 12.7374 8.87656C12.8144 8.875 12.9512 8.81354 12.9549 8.77083C12.9678 8.62292 13.0592 8.44896 12.8769 8.32813C12.6101 8.15139 12.3935 8.12882 12.2271 8.26042C11.8188 8.5849 11.3592 8.5849 10.9536 8.2599C10.8403 8.16927 10.7243 8.08125 10.6201 7.98125C10.4972 7.86354 10.3935 7.85833 10.2609 7.97448C10.0285 8.17813 9.7789 8.36354 9.54483 8.56615C9.4839 8.61875 9.45344 8.70573 9.40909 8.77656C9.49352 8.81146 9.57743 8.87552 9.66293 8.87708C10.1685 8.88646 10.6746 8.88177 11.1801 8.88177V8.88125Z" fill="white"/>
<path d="M11.1871 13.9896C10.6607 13.9896 10.1343 13.9917 9.60842 13.9891C8.98369 13.9859 8.60212 13.6104 8.60051 13.001C8.59944 12.3703 8.59838 11.7391 8.60051 11.1083C8.60265 10.5344 8.9869 10.1469 9.57101 10.1443C10.65 10.1385 11.7295 10.1385 12.8085 10.1443C13.3782 10.1474 13.7646 10.5182 13.7726 11.0729C13.7822 11.7365 13.7822 12.4 13.7726 13.0635C13.7641 13.6177 13.3761 13.9839 12.8053 13.9891C12.2655 13.9943 11.7263 13.9901 11.1866 13.9906L11.1871 13.9896ZM12.4398 13.2089C12.5477 13.2089 12.6273 13.2089 12.707 13.2089C12.956 13.2068 12.9758 13.1885 12.9758 12.9375C12.9769 12.3453 12.972 11.7526 12.9785 11.1604C12.9806 10.9849 12.9154 10.9193 12.7326 10.9203C11.706 10.926 10.6794 10.926 9.65332 10.9203C9.46306 10.9193 9.39359 10.9839 9.3968 11.1708C9.40535 11.7109 9.4 12.251 9.4 12.7917C9.4 13.2333 9.40588 13.2385 9.85907 13.2063C9.87777 13.2047 9.89594 13.1958 9.93442 13.1844C9.94992 12.7729 9.87777 12.338 10.215 11.9917C10.5565 11.6406 10.991 11.6646 11.4254 11.6755C11.6809 11.6818 11.9043 11.7698 12.0988 11.9344C12.4996 12.2745 12.4403 12.738 12.4398 13.2089ZM11.6387 13.2016C11.6387 13.0167 11.644 12.849 11.6371 12.6818C11.6307 12.5339 11.5345 12.4422 11.3907 12.4604C11.1732 12.4885 10.8713 12.3182 10.7628 12.6266C10.7029 12.7969 10.7521 13.0042 10.7521 13.2016H11.6392H11.6387Z" fill="white"/>
<path d="M9.78051 5.09219C8.61441 5.09219 7.44831 5.09323 6.28221 5.09167C5.97599 5.09167 5.80444 4.95521 5.79536 4.71771C5.78787 4.51406 5.92201 4.35156 6.12883 4.3224C6.20739 4.31146 6.28809 4.31198 6.36825 4.31198C8.64754 4.31198 10.9263 4.31198 13.2056 4.31198C13.2852 4.31198 13.3664 4.31198 13.4445 4.32344C13.6353 4.35208 13.7651 4.49896 13.7721 4.6849C13.7796 4.88177 13.6556 5.04167 13.4578 5.07708C13.3734 5.09219 13.2858 5.09167 13.1992 5.09167C12.0598 5.09271 10.9199 5.09219 9.78051 5.09167V5.09219Z" fill="white"/>
<path d="M4.19478 4.70104C4.19478 4.48438 4.36365 4.31771 4.5849 4.31563C4.80401 4.31354 4.98358 4.48073 4.98999 4.69115C4.9964 4.90677 4.80882 5.09063 4.5849 5.08802C4.36632 5.08542 4.19478 4.91563 4.19478 4.70052V4.70104Z" fill="white"/>
<path d="M13.2649 1.5125C13.3579 1.5125 13.452 1.50573 13.5444 1.51406C13.7427 1.53125 13.8896 1.68073 13.9051 1.87031C13.9196 2.04948 13.8047 2.23854 13.6166 2.26094C13.375 2.28906 13.1249 2.29063 12.8833 2.2625C12.684 2.23906 12.5771 2.05417 12.5953 1.85573C12.6124 1.66615 12.7588 1.52708 12.9651 1.51302C13.0645 1.50625 13.165 1.51198 13.2649 1.51198V1.51302V1.5125Z" fill="white"/>
<path d="M6.05295 9.05365C5.9001 9.05365 5.74726 9.0599 5.59495 9.05208C5.36996 9.0401 5.20376 8.86927 5.20482 8.6625C5.20589 8.45573 5.3721 8.28281 5.59816 8.27656C5.90972 8.26823 6.22236 8.26771 6.53392 8.27656C6.76319 8.28333 6.92191 8.4526 6.92084 8.6651C6.91977 8.87708 6.75998 9.04062 6.53071 9.05156C6.37199 9.05937 6.2122 9.05313 6.05295 9.05313V9.05365Z" fill="white"/>
<path d="M6.07913 10.8911C6.21861 10.8911 6.3581 10.888 6.49758 10.8917C6.7541 10.899 6.92351 11.0589 6.92084 11.2859C6.91817 11.5047 6.75196 11.6651 6.5072 11.6698C6.20846 11.6755 5.90972 11.676 5.61098 11.6698C5.3737 11.6641 5.20108 11.4901 5.20429 11.2766C5.2075 11.0625 5.38065 10.9026 5.62114 10.8917C5.6345 10.8911 5.64786 10.8917 5.66122 10.8917C5.8007 10.8917 5.94018 10.8917 6.07967 10.8917L6.07913 10.8911Z" fill="white"/>
<path d="M6.07699 6.96979C6.23037 6.96979 6.38375 6.96302 6.53659 6.97135C6.76212 6.98385 6.91496 7.13802 6.92084 7.34375C6.92672 7.55052 6.78456 7.72448 6.56011 7.73594C6.23465 7.75208 5.90705 7.75208 5.58159 7.73802C5.34858 7.72813 5.19414 7.54635 5.20482 7.33854C5.21498 7.1349 5.37156 6.9875 5.59709 6.96979C5.61045 6.96875 5.62381 6.96823 5.63717 6.96823C5.7836 6.96823 5.93056 6.96823 6.07699 6.96823C6.07699 6.96875 6.07699 6.96927 6.07699 6.96979Z" fill="white"/>
<path d="M6.05295 10.3604C5.89957 10.3604 5.74566 10.3698 5.59335 10.3583C5.35713 10.3401 5.20055 10.176 5.20429 9.96719C5.2075 9.75729 5.36996 9.59479 5.6051 9.58854C5.91132 9.58021 6.21861 9.58021 6.52484 9.58854C6.76105 9.59479 6.91924 9.75625 6.92137 9.96927C6.92351 10.176 6.77868 10.3286 6.55263 10.3583C6.53285 10.3609 6.51308 10.3641 6.49277 10.3641C6.34634 10.3641 6.19938 10.3641 6.05295 10.3641C6.05295 10.363 6.05295 10.3615 6.05295 10.3604Z" fill="white"/>
<path d="M6.07165 12.2036C6.22503 12.2036 6.37841 12.1974 6.53125 12.2052C6.75784 12.2172 6.91229 12.3677 6.9203 12.5729C6.92939 12.787 6.78136 12.9615 6.54514 12.9724C6.2261 12.987 5.90545 12.987 5.5864 12.9729C5.35179 12.9625 5.19681 12.7859 5.20429 12.5776C5.21177 12.3677 5.3737 12.2146 5.61152 12.2047C5.76436 12.1979 5.91827 12.2036 6.07112 12.2042L6.07165 12.2036Z" fill="white"/>
</svg>
