<svg width="15" height="30" viewBox="0 0 15 30" fill="none" xmlns="http://www.w3.org/2000/svg">
<path d="M9.94375 7.73125H12.875C12.825 10.65 12.25 11.1312 10.4563 12.1937C10.25 12.3187 10.1813 12.5812 10.3063 12.7938C10.425 13 10.6937 13.0688 10.9 12.9438C13.0125 11.6938 13.75 10.9313 13.75 7.3V3.93125C13.75 2.8625 12.8813 2 11.8187 2H9.94375C8.84375 2 8.0125 2.83125 8.0125 3.93125V5.80625C8.0125 6.9 8.84375 7.73125 9.94375 7.73125Z" fill="white"/>
<path d="M3.18125 7.73125H6.1125C6.0625 10.65 5.4875 11.1312 3.69375 12.1937C3.4875 12.3187 3.41875 12.5812 3.54375 12.7938C3.66875 13 3.93125 13.0688 4.14375 12.9438C6.25625 11.6938 6.99375 10.9313 6.99375 7.29375V3.925C6.99375 2.85625 6.125 1.99375 5.0625 1.99375H3.1875C2.0875 1.99375 1.25625 2.825 1.25625 3.925V5.8C1.25 6.9 2.08125 7.73125 3.18125 7.73125Z" fill="white"/>
</svg>
