<svg width="11" height="21" viewBox="0 0 11 21" fill="none" xmlns="http://www.w3.org/2000/svg">
<path d="M0 10.4946C0 7.70364 0 4.9127 0 2.12177C0 1.11358 0.593086 0.5 1.56804 0.5C4.18952 0.5 6.811 0.5 9.43249 0.5C10.408 0.5 10.9995 1.1125 11 2.12231C11 7.71123 11 13.3001 11 18.8885C11 19.8837 10.4043 20.5 9.44197 20.5C6.81416 20.5 4.18584 20.5 1.55804 20.5C0.5973 20.5 0.000526719 19.8821 0.000526719 18.8874C0.000526719 16.0895 0.000526719 13.292 0.000526719 10.494L0 10.4946ZM10.5523 16.6288V3.34568H10.3037C8.12201 3.34568 5.94086 3.34568 3.75919 3.34568C3.69335 3.34568 3.61066 3.36899 3.56589 3.33755C3.48319 3.27901 3.38312 3.19716 3.36257 3.10719C3.33255 2.9733 3.43263 2.88278 3.56747 2.86219C3.63173 2.85243 3.69862 2.85839 3.76446 2.85839C5.95245 2.85839 8.14044 2.85839 10.329 2.85839H10.567C10.567 2.59334 10.567 2.35701 10.567 2.12068C10.567 1.39544 10.1725 0.988373 9.46988 0.988373C6.83523 0.988373 4.20006 0.988373 1.56541 0.988373C1.51958 0.988373 1.47323 0.987289 1.42741 0.989457C0.981804 1.0068 0.577811 1.31359 0.512498 1.76511C0.461406 2.11906 0.50249 2.48656 0.50249 2.85839C0.955468 2.85839 1.40792 2.86056 1.8609 2.85731C2.02576 2.85623 2.15007 2.90663 2.16587 3.09526C2.17904 3.25245 2.06052 3.34351 1.85458 3.34568C1.65074 3.34731 1.44742 3.34568 1.24358 3.34568C0.990232 3.34568 0.73688 3.34568 0.484055 3.34568V16.6293H10.5539L10.5523 16.6288ZM0.472994 17.141C0.472994 17.7237 0.472994 18.2923 0.472994 18.8603C0.472994 19.6121 0.861186 20.0127 1.59016 20.0127C4.21112 20.0127 6.83207 20.0127 9.45303 20.0127C9.51887 20.0127 9.58471 20.0143 9.65002 20.01C10.1262 19.9759 10.5418 19.584 10.5581 19.101C10.5797 18.4527 10.5634 17.8028 10.5634 17.141H0.472994Z" fill="white"/>
<path d="M5.52581 4.15874C6.70829 4.15874 7.89077 4.15874 9.07326 4.15874C9.35453 4.15874 9.42247 4.22812 9.42247 4.51594C9.42247 6.74478 9.42247 8.97309 9.42247 11.2019C9.42247 11.4876 9.35347 11.557 9.07115 11.557C6.70618 11.557 4.34069 11.557 1.97572 11.557C1.68181 11.557 1.6165 11.4903 1.6165 11.1895C1.6165 8.96767 1.6165 6.74587 1.6165 4.52407C1.6165 4.22432 1.68128 4.15874 1.97783 4.15874C3.16031 4.15874 4.34279 4.15874 5.52528 4.15874H5.52581ZM5.17027 7.85813C4.14001 6.88951 3.13292 5.94203 2.10635 4.97721V10.7401C3.13713 9.77042 4.14528 8.8224 5.17027 7.85813ZM8.94369 4.96908C7.90658 5.9442 6.89475 6.89547 5.87081 7.85813C6.89896 8.82457 7.90868 9.77422 8.94369 10.7472V4.96854V4.96908ZM2.47294 4.65578C3.51163 5.63199 4.51398 6.57404 5.52159 7.52152C6.54079 6.56266 7.5405 5.62223 8.56708 4.65578H2.47294ZM5.52054 8.19419C4.49923 9.15521 3.50004 10.0951 2.4761 11.0588H8.56655C7.53682 10.0902 6.53605 9.14925 5.52054 8.19419Z" fill="white"/>
<path d="M5.5 14.2406C4.35017 14.2406 3.20034 14.2406 2.05052 14.2406C1.9852 14.2406 1.90093 14.2612 1.85826 14.2276C1.78242 14.1685 1.68445 14.0758 1.68445 13.9967C1.68445 13.9181 1.78294 13.8248 1.85826 13.7658C1.90145 13.7322 1.9852 13.7533 2.05104 13.7533C4.36387 13.7533 6.67669 13.7533 8.98951 13.7533C9.04218 13.7533 9.09538 13.7495 9.147 13.756C9.28395 13.7728 9.36612 13.8574 9.36612 13.9972C9.36612 14.1365 9.28342 14.2216 9.147 14.2384C9.08854 14.2455 9.02902 14.2411 8.9695 14.2411C7.81282 14.2411 6.65667 14.2411 5.5 14.2411V14.2406Z" fill="white"/>
<path d="M5.50737 15.4602C4.35755 15.4602 3.20772 15.4602 2.05789 15.4602C1.99205 15.4602 1.90936 15.4818 1.86511 15.4493C1.78768 15.3924 1.67971 15.297 1.68497 15.2255C1.69077 15.1387 1.79242 15.0488 1.87038 14.9826C1.9062 14.9523 1.98468 14.9734 2.04367 14.9734C4.36334 14.9734 6.68248 14.9734 9.00216 14.9734C9.05483 14.9734 9.1233 14.9539 9.15648 14.9805C9.23654 15.045 9.34083 15.1225 9.3598 15.2114C9.38771 15.3425 9.2908 15.4368 9.15438 15.4569C9.09644 15.4656 9.03639 15.4607 8.9774 15.4607C7.82072 15.4607 6.66458 15.4607 5.5079 15.4607L5.50737 15.4602Z" fill="white"/>
<path d="M3.706 12.9804C3.13503 12.9804 2.5646 12.9809 1.99363 12.9804C1.78558 12.9804 1.67234 12.8942 1.67076 12.7397C1.66865 12.5841 1.78242 12.4936 1.98784 12.4936C3.13609 12.4925 4.28434 12.4931 5.43258 12.4936C5.64748 12.4936 5.7523 12.5744 5.75441 12.7337C5.75652 12.8909 5.64538 12.9798 5.43838 12.9804C4.86109 12.9815 4.28381 12.9804 3.706 12.9804Z" fill="white"/>
<path d="M5.52054 19.3541C5.04017 19.3585 4.62512 18.9341 4.62354 18.437C4.62249 17.9345 5.01858 17.5183 5.5079 17.5074C5.99722 17.4971 6.41649 17.9253 6.41386 18.4338C6.41175 18.9346 6.00828 19.3498 5.52001 19.3536L5.52054 19.3541ZM5.94192 18.4332C5.94402 18.2034 5.75598 18.0034 5.53213 17.9963C5.30143 17.9893 5.10022 18.1893 5.09811 18.4283C5.09601 18.6565 5.28457 18.8582 5.5079 18.8663C5.73492 18.8744 5.94034 18.6701 5.94244 18.4332H5.94192Z" fill="white"/>
</svg>
