<svg width="50" height="50" viewBox="0 0 50 50" fill="none" xmlns="http://www.w3.org/2000/svg">
<path d="M22.0044 22.909L8.21339 11.2439C7.65009 10.7728 6.98989 10.4315 6.2797 10.2441C5.56951 10.0567 4.82675 10.028 4.10418 10.1598C3.3816 10.2917 2.69695 10.5809 2.09884 11.007C1.50073 11.433 1.00384 11.9855 0.643477 12.6251C0.28311 13.2647 0.0681026 13.9758 0.0137275 14.7078C-0.0406477 15.4398 0.0669432 16.1748 0.328858 16.8605C0.590773 17.5463 1.00059 18.166 1.52919 18.6757C2.05779 19.1853 2.6922 19.5724 3.38738 19.8094H3.43741L3.56748 19.8494L20.9638 25.1454C21.09 25.191 21.2231 25.2147 21.3574 25.2154C21.6279 25.214 21.8905 25.1245 22.1056 24.9606C22.3206 24.7966 22.4763 24.567 22.5491 24.3067C22.6218 24.0463 22.6077 23.7694 22.5088 23.5178C22.4099 23.2662 22.2317 23.0537 22.0011 22.9124L22.0044 22.909Z" fill="url(#paint0_linear_19_337)"/>
<path d="M24.7693 3.65148C24.7732 2.99541 24.5992 2.35054 24.2656 1.78545C23.932 1.22036 23.4514 0.756194 22.8749 0.442317C22.2984 0.128439 21.6475 -0.0234084 20.9915 0.00292553C20.3355 0.0292595 19.6989 0.23279 19.1495 0.591869L2.30678 10.8106C1.7341 11.1836 1.24399 11.6699 0.8667 12.2396C0.489412 12.8092 0.232951 13.4501 0.113146 14.1227C-0.00665867 14.7952 0.0127335 15.4852 0.170127 16.1499C0.32752 16.8147 0.619575 17.4402 1.02826 17.9878C1.43695 18.5354 1.95361 18.9934 2.54634 19.3337C3.13907 19.674 3.7953 19.8893 4.47453 19.9663C5.15377 20.0434 5.84158 19.9804 6.49554 19.7815C7.14949 19.5825 7.7557 19.2517 8.27676 18.8096L23.3751 6.51445L23.4952 6.41447C23.8943 6.07289 24.2148 5.64914 24.4347 5.17224C24.6546 4.69534 24.7687 4.17657 24.7693 3.65148Z" fill="url(#paint1_linear_19_337)"/>
<path d="M49.2629 25.672L23.7087 1.07847C23.3627 0.731462 22.95 0.457896 22.4956 0.274197C22.0412 0.0904989 21.5543 0.00045596 21.0642 0.00947376C20.574 0.0184916 20.0908 0.126384 19.6434 0.326675C19.1961 0.526966 18.7938 0.815525 18.4608 1.17503C18.1278 1.53453 17.8709 1.95757 17.7056 2.41874C17.5403 2.87992 17.4699 3.36972 17.4987 3.85875C17.5275 4.34778 17.6549 4.82595 17.8733 5.26455C18.0916 5.70316 18.3964 6.09315 18.7693 6.41113L18.8159 6.45113L45.9644 29.3082C46.3226 29.6085 46.7591 29.8003 47.2227 29.8611C47.6863 29.9218 48.1576 29.849 48.5812 29.6512C49.0047 29.4534 49.363 29.1388 49.6137 28.7444C49.8645 28.3501 49.9973 27.8924 49.9966 27.4251C49.9966 27.0989 49.9317 26.776 49.8057 26.475C49.6798 26.1741 49.4952 25.9011 49.2629 25.672Z" fill="url(#paint2_linear_19_337)"/>
<path d="M49.9999 27.4351C50.0032 26.9819 49.8806 26.5365 49.6458 26.1488C49.4109 25.761 49.0729 25.4459 48.6695 25.2386C48.2661 25.0314 47.813 24.94 47.3608 24.9748C46.9085 25.0095 46.4747 25.169 46.1078 25.4354L15.1873 40.5335C14.5707 40.8431 14.0249 41.2768 13.5842 41.8073C13.1435 42.3378 12.8173 42.9537 12.6263 43.6163C12.4352 44.2789 12.3834 44.9738 12.474 45.6573C12.5646 46.3409 12.7958 46.9983 13.1529 47.5883C13.51 48.1782 13.9854 48.688 14.5492 49.0855C15.113 49.4831 15.753 49.7597 16.4289 49.8982C17.1049 50.0366 17.8022 50.0339 18.477 49.89C19.1518 49.7462 19.7895 49.4644 20.3501 49.0624L48.9427 29.4516C49.2691 29.2261 49.5358 28.9248 49.7199 28.5735C49.9041 28.2223 50.0002 27.8317 49.9999 27.4351Z" fill="url(#paint3_linear_19_337)"/>
<path d="M14.8137 15.0067H34.8248V35.0042H14.8137V15.0067Z" fill="black"/>
<path d="M16.9916 31.2547H24.4958V32.5045H16.9916V31.2547Z" fill="white"/>
<path d="M16.6781 20.1627L17.2351 19.6361C17.2881 19.7197 17.3601 19.7896 17.4453 19.84C17.5306 19.8904 17.6265 19.9199 17.7253 19.9261C17.9388 19.9261 18.0789 19.7761 18.0789 19.4861V17.5131H18.9394V19.4928C18.9522 19.6522 18.9316 19.8126 18.8787 19.9635C18.8259 20.1145 18.742 20.2527 18.6325 20.3694C18.5194 20.4797 18.3852 20.5661 18.238 20.6234C18.0907 20.6807 17.9333 20.7076 17.7754 20.7027C17.5619 20.7113 17.3497 20.6664 17.1581 20.5721C16.9664 20.4777 16.8014 20.337 16.6781 20.1627Z" fill="white"/>
<path d="M19.3262 17.5131H21.8376V18.243H20.17V18.7196H21.6675V19.3862H20.1834V19.8828H21.851V20.616H19.3162L19.3262 17.5131Z" fill="white"/>
<path d="M23.0616 18.2696H22.1278V17.5131H24.866V18.2696H23.9288V20.6327H23.0616V18.2696Z" fill="white"/>
<path d="M17.025 21.8658H18.4991C18.6521 21.8533 18.8062 21.8713 18.9522 21.9187C19.0982 21.9662 19.2333 22.0423 19.3496 22.1425C19.4159 22.2089 19.4681 22.288 19.503 22.375C19.538 22.4621 19.555 22.5553 19.553 22.6491C19.5555 22.8012 19.5102 22.9502 19.4234 23.0752C19.3367 23.2001 19.2128 23.2947 19.0694 23.3457C19.2469 23.3782 19.4069 23.4729 19.5206 23.6128C19.6343 23.7528 19.6943 23.9287 19.6898 24.1089C19.6898 24.6722 19.2529 25.0054 18.5058 25.0054H17.025V21.8658ZM18.6925 22.8291C18.6925 22.6557 18.5525 22.5624 18.299 22.5624H17.8688V23.109H18.2857C18.5458 23.109 18.6992 23.019 18.6992 22.8391L18.6925 22.8291ZM17.8688 23.7156V24.2922H18.4091C18.6759 24.2922 18.8226 24.1889 18.8226 24.0056C18.8159 23.8289 18.6892 23.7156 18.399 23.7156H17.8688Z" fill="white"/>
<path d="M19.9666 21.8658H21.3507C21.5339 21.8509 21.7183 21.8727 21.8929 21.93C22.0676 21.9872 22.2291 22.0787 22.3679 22.1991C22.4616 22.2947 22.5345 22.4086 22.5821 22.5336C22.6297 22.6586 22.651 22.7921 22.6447 22.9257C22.6508 23.1332 22.592 23.3374 22.4767 23.5099C22.3613 23.6825 22.1951 23.815 22.0011 23.8889L22.7481 25.0054H21.7476L21.1172 24.0589H20.8271V25.0054H19.9599L19.9666 21.8658ZM21.3007 23.3657C21.5908 23.3657 21.7676 23.2223 21.7676 22.9924C21.7676 22.7424 21.5842 22.6158 21.2973 22.6158H20.8337V23.3723L21.3007 23.3657Z" fill="white"/>
<path d="M23.8487 21.8425H24.6825L26.0166 24.9888H25.0861L24.8626 24.4255H23.652L23.4285 25.0055H22.5247L23.8487 21.8425ZM24.6092 23.7523L24.259 22.8691L23.9054 23.7523H24.6092Z" fill="white"/>
<path d="M26.1534 21.8559H27.0205V24.9788H26.1534V21.8559Z" fill="white"/>
<path d="M27.3407 21.8559H28.1545L29.2784 23.5223V21.8559H30.1356V24.9788H29.3785L28.2012 23.2657V24.9788H27.3407V21.8559Z" fill="white"/>
<path d="M30.279 24.5155L30.7592 23.9389C31.0405 24.1739 31.3933 24.3067 31.7598 24.3155C31.9966 24.3155 32.12 24.2322 32.12 24.0989C32.12 23.9622 32.02 23.8956 31.5897 23.7956C30.9227 23.6423 30.4124 23.4623 30.4124 22.8191C30.4124 22.2391 30.8726 21.8192 31.6231 21.8192C32.0869 21.8018 32.5419 21.9494 32.9071 22.2358L32.4902 22.8291C32.2379 22.6386 31.9325 22.5314 31.6164 22.5224C31.4063 22.5224 31.3029 22.6058 31.3029 22.7224C31.3029 22.8657 31.4096 22.929 31.8465 23.0257C32.5636 23.1823 33.0072 23.4157 33.0072 23.9989C33.0072 24.6355 32.5036 24.9988 31.7465 24.9988C31.2148 25.0214 30.693 24.8496 30.279 24.5155Z" fill="white"/>
<defs>
<linearGradient id="paint0_linear_19_337" x1="12.5884" y1="17.5558" x2="53.9414" y2="31.0382" gradientUnits="userSpaceOnUse">
<stop offset="0.21" stop-color="#FE2857"/>
<stop offset="1" stop-color="#293896"/>
</linearGradient>
<linearGradient id="paint1_linear_19_337" x1="1.13903" y1="45.7365" x2="51.5225" y2="15.5031" gradientUnits="userSpaceOnUse">
<stop stop-color="#FE2857"/>
<stop offset="0.01" stop-color="#FE2857"/>
<stop offset="0.86" stop-color="#FF318C"/>
</linearGradient>
<linearGradient id="paint2_linear_19_337" x1="3.14919" y1="3.67021" x2="50.6303" y2="43.3209" gradientUnits="userSpaceOnUse">
<stop offset="0.02" stop-color="#FF318C"/>
<stop offset="0.21" stop-color="#FE2857"/>
<stop offset="0.86" stop-color="#FDB60D"/>
</linearGradient>
<linearGradient id="paint3_linear_19_337" x1="45.5435" y1="-0.0574449" x2="-8.70281" y2="24.8382" gradientUnits="userSpaceOnUse">
<stop offset="0.01" stop-color="#FDB60D"/>
<stop offset="0.86" stop-color="#FCF84A"/>
</linearGradient>
</defs>
</svg>
