<svg width="51" height="50" viewBox="0 0 51 50" fill="none" xmlns="http://www.w3.org/2000/svg">
<path d="M0.311279 0H50.3113V50H0.311279V0Z" fill="#F7DF1E"/>
<path d="M13.4582 41.7836L17.2843 39.468C18.0226 40.7768 18.6941 41.8842 20.3048 41.8842C21.8488 41.8842 22.8224 41.2803 22.8224 38.9311V22.9549H27.521V38.9975C27.521 43.8641 24.6683 46.0793 20.5062 46.0793C16.7474 46.0793 14.5656 44.1326 13.458 41.7832M30.0732 41.2801L33.899 39.065C34.9062 40.7098 36.2152 41.918 38.5308 41.918C40.4779 41.918 41.7193 40.9445 41.7193 39.602C41.7193 37.991 40.4439 37.4203 38.2958 36.4809L37.1214 35.977C33.7314 34.5342 31.4828 32.7217 31.4828 28.8955C31.4828 25.3713 34.1677 22.6861 38.3632 22.6861C41.3503 22.6861 43.4984 23.7268 45.0421 26.4453L41.3835 28.7949C40.5779 27.3518 39.7056 26.7812 38.363 26.7812C36.9869 26.7812 36.1142 27.6539 36.1142 28.7949C36.1142 30.2045 36.9869 30.7754 39.0005 31.648L40.1751 32.1514C44.1693 33.8633 46.4179 35.6084 46.4179 39.535C46.4179 43.7643 43.0953 46.0799 38.6314 46.0799C34.2683 46.0799 31.449 43.999 30.073 41.2803" fill="black"/>
</svg>
