<svg width="30" height="30" viewBox="0 0 30 30" fill="none" xmlns="http://www.w3.org/2000/svg">
<path d="M16.2412 13.4672C16.2333 13.4672 16.2288 13.458 16.2334 13.4515C16.2399 13.4421 16.2458 13.4323 16.2506 13.4222V13.4578C16.2506 13.463 16.2464 13.4672 16.2412 13.4672ZM25 0C27.7614 0 30 2.23858 30 5V25C30 27.7614 27.7614 30 25 30H5C2.23858 30 0 27.7614 0 25V5C0 2.23858 2.23858 0 5 0H25ZM9.30469 13.7541C9.30469 12.5187 8.3032 11.5172 7.06781 11.5172C5.83242 11.5172 4.83094 12.5187 4.83094 13.7541V22.7372C4.83094 23.9726 5.83242 24.9741 7.06781 24.9741C8.3032 24.9741 9.30469 23.9726 9.30469 22.7372V13.7541ZM9.59719 7.35656C9.56906 6.03469 8.62687 5.02969 7.09594 5.02969C5.56687 5.02969 4.56656 6.03469 4.56656 7.35656C4.56656 8.64563 5.53688 9.68062 7.03781 9.68062H7.06687C8.62687 9.68062 9.59719 8.64563 9.59719 7.35656ZM25.4334 17.2575C25.4334 13.125 23.2256 11.2022 20.2828 11.2022C17.91 11.2022 16.8478 12.5063 16.2506 13.4222C16.2506 12.3701 15.3977 11.5172 14.3456 11.5172H14.0653C12.8196 11.5172 11.7986 12.5546 11.802 13.8003C11.8091 16.3237 11.7972 20.2719 11.788 22.7366C11.7834 23.9727 12.7839 24.9741 14.0199 24.9741C15.2519 24.9741 16.2506 23.9753 16.2506 22.7434V17.4591C16.2506 17.0522 16.2797 16.6575 16.3978 16.3678C16.7222 15.5672 17.4591 14.7309 18.6928 14.7309C20.3137 14.7309 20.9597 15.9628 20.9597 17.7741V22.7375C20.9597 23.9727 21.961 24.9741 23.1962 24.9741C24.4313 24.9741 25.4326 23.9729 25.4328 22.7378L25.4334 17.2575Z" fill="#18A1FD"/>
</svg>
