<svg width="42" height="44" viewBox="0 0 42 44" fill="none" xmlns="http://www.w3.org/2000/svg">
<path d="M42 7.54306H35.4876V29.3727H42V7.54306Z" fill="white"/>
<path d="M34.5906 16.8653V29.3731H20.8352V22.9079H28.0786V16.6892C28.0786 16.5459 27.962 16.4301 27.8185 16.4301H27.6072C27.4638 16.4301 27.3471 16.5459 27.3471 16.6892V22.1354H20.8352V16.8653C20.8352 13.0942 23.9144 10.0375 27.7124 10.0375C31.5105 10.0375 34.5906 13.0942 34.5906 16.8653Z" fill="white"/>
<path d="M13.1075 10.0375C9.30864 10.0375 6.22938 13.0942 6.22938 16.8653V22.914C2.76367 23.0604 0 25.8961 0 29.3731H19.9857V16.8653C19.9857 13.0942 16.9055 10.0375 13.1075 10.0375ZM12.7413 16.6892C12.7413 16.5459 12.858 16.4301 13.0023 16.4301H13.2127C13.3571 16.4301 13.4729 16.5459 13.4729 16.6892V22.9079H12.7413V16.6892Z" fill="white"/>
<path d="M38.5427 4.19403H42V6.43065H35.488V5.47815C35.488 3.94761 36.1632 2.48085 37.3644 1.52093C37.411 1.48379 37.4577 1.44753 37.5048 1.4117C38.7376 0.476684 40.2619 0 41.8134 0H41.9996V2.63902C40.4397 2.63902 39.581 2.90642 39.1096 3.18518C38.7539 3.39577 38.5422 3.78245 38.5422 4.1936L38.5427 4.19403Z" fill="white"/>
<path d="M41.9996 31.5625H0V44H41.9996V31.5625Z" fill="white"/>
<path d="M8.99041 39.9257H6.95738L6.65588 40.8406H4.64882L6.87991 34.7861H9.08504L11.3078 40.8406H9.29191L8.99041 39.9257ZM7.97412 36.813L7.42261 38.4978H8.52518L7.97412 36.813Z" fill="black"/>
<path d="M19.1476 37.7966C19.1476 39.5237 17.9245 40.841 15.9777 40.841H13.4363V34.7866H15.9777C17.9245 34.7866 19.1476 36.0519 19.1476 37.7966ZM15.8052 39.1475C16.6494 39.1475 17.2092 38.677 17.2092 37.7966C17.2092 36.9162 16.6494 36.4456 15.8052 36.4456H15.3488V39.148L15.8052 39.1475Z" fill="black"/>
<path d="M25.4452 39.9257H23.4122L23.1107 40.8406H21.1037L23.3348 34.7861H25.5399L27.7622 40.8406H25.7463L25.4452 39.9257ZM24.429 36.813L23.8775 38.4978H24.98L24.429 36.813Z" fill="black"/>
<path d="M29.8912 34.7866H32.2341L33.5778 38.4209L34.8873 34.7866H37.2218V40.841H35.3182V37.8223L34.3793 40.841H32.7424L31.8036 37.8223V40.841H29.8912V34.7866Z" fill="black"/>
</svg>
