<?xml version="1.0" encoding="UTF-8"?>
<svg id="Layer_1" data-name="Layer 1" xmlns="http://www.w3.org/2000/svg" viewBox="0 0 964.22 1012.04">
  <defs>
    <style>
      .cls-1 {
        fill: none;
        stroke: #000;
        stroke-miterlimit: 10;
        stroke-width: 10px;
      }
    </style>
  </defs>
  <rect x="811.27" y="172.64" width="147.96" height="499.62"/>
  <path d="M790.89,386v286.27h-312.52v-147.97h164.57v-142.33c0-3.28-2.65-5.93-5.91-5.93h-4.8c-3.26,0-5.91,2.65-5.91,5.93v124.65h-147.95v-120.62c0-86.31,69.96-156.27,156.25-156.27s156.27,69.96,156.27,156.27Z"/>
  <path d="M302.8,229.73c-86.31,0-156.27,69.96-156.27,156.27v138.44c-78.74,3.35-141.53,68.25-141.53,147.83h454.07v-286.27c0-86.31-69.98-156.27-156.27-156.27ZM294.48,381.97c0-3.28,2.65-5.93,5.93-5.93h4.78c3.28,0,5.91,2.65,5.91,5.93v142.33h-16.62v-142.33Z"/>
  <path d="M880.68,95.99h0s78.55,0,78.55,0v51.19h-147.95v-21.8c0-35.03,15.34-68.6,42.63-90.57,1.06-.85,2.12-1.68,3.19-2.5C885.11,10.91,919.74,0,954.99,0h4.23v60.4c-35.44,0-54.95,6.12-65.66,12.5-8.08,4.82-12.89,13.67-12.89,23.08Z"/>
  <rect class="cls-1" x="5" y="722.38" width="954.22" height="284.66"/>
  <g>
    <path d="M209.26,913.79h-46.19l-6.85,20.94h-45.6l50.69-138.57h50.1l50.5,138.57h-45.8l-6.85-20.94ZM186.17,842.55l-12.53,38.56h25.05l-12.53-38.56Z"/>
    <path d="M440.03,865.06c0,39.53-27.79,69.68-72.02,69.68h-57.74v-138.57h57.74c44.23,0,72.02,28.96,72.02,68.89ZM364.09,895.98c19.18,0,31.9-10.77,31.9-30.92s-12.72-30.92-31.9-30.92h-10.37v61.85h10.37Z"/>
    <path d="M583.11,913.79h-46.19l-6.85,20.94h-45.6l50.69-138.57h50.1l50.49,138.57h-45.8l-6.85-20.94ZM560.02,842.55l-12.53,38.56h25.05l-12.53-38.56Z"/>
    <path d="M684.12,796.17h53.23l30.53,83.18,29.75-83.18h53.04v138.57h-43.25v-69.09l-21.33,69.09h-37.19l-21.33-69.09v69.09h-43.45v-138.57Z"/>
  </g>
</svg>