<svg width="28" height="30" viewBox="0 0 28 30" fill="none" xmlns="http://www.w3.org/2000/svg">
<path d="M28 5.14299H23.6584V20.0268H28V5.14299Z" fill="white"/>
<path d="M23.0604 11.499V20.0271H13.8901V15.619H18.7191V11.379C18.7191 11.2813 18.6413 11.2023 18.5457 11.2023H18.4048C18.3092 11.2023 18.2314 11.2813 18.2314 11.379V15.0924H13.8901V11.499C13.8901 8.92785 15.9429 6.84372 18.475 6.84372C21.007 6.84372 23.0604 8.92785 23.0604 11.499Z" fill="white"/>
<path d="M8.73835 6.84372C6.20576 6.84372 4.15292 8.92785 4.15292 11.499V15.6232C1.84245 15.723 0 17.6564 0 20.0271H13.3238V11.499C13.3238 8.92785 11.2704 6.84372 8.73835 6.84372ZM8.49422 11.379C8.49422 11.2813 8.57198 11.2023 8.66823 11.2023H8.80848C8.90473 11.2023 8.9819 11.2813 8.9819 11.379V15.619H8.49422V11.379Z" fill="white"/>
<path d="M25.6951 2.85957H28V4.38453H23.6587V3.73511C23.6587 2.69155 24.1088 1.69149 24.9096 1.037C24.9407 1.01168 24.9718 0.986952 25.0032 0.962524C25.8251 0.325012 26.8412 0 27.8756 0H27.9997V1.79933C26.9598 1.79933 26.3873 1.98165 26.073 2.17171C25.836 2.3153 25.6948 2.57894 25.6948 2.85927L25.6951 2.85957Z" fill="white"/>
<path d="M27.9997 21.5199H0V30H27.9997V21.5199Z" fill="white"/>
<path d="M5.99361 27.2221H4.63825L4.43725 27.8459H3.09921L4.58661 23.7178H6.0567L7.53852 27.8459H6.19461L5.99361 27.2221ZM5.31608 25.0998L4.94841 26.2485H5.68345L5.31608 25.0998Z" fill="black"/>
<path d="M12.7651 25.7704C12.7651 26.948 11.9497 27.8462 10.6518 27.8462H8.95755V23.7181H10.6518C11.9497 23.7181 12.7651 24.5809 12.7651 25.7704ZM10.5368 26.6915C11.0996 26.6915 11.4728 26.3707 11.4728 25.7704C11.4728 25.1701 11.0996 24.8493 10.5368 24.8493H10.2325V26.6918L10.5368 26.6915Z" fill="black"/>
<path d="M16.9635 27.2221H15.6081L15.4071 27.8459H14.0691L15.5565 23.7178H17.0266L18.5081 27.8459H17.1642L16.9635 27.2221ZM16.286 25.0998L15.9183 26.2485H16.6533L16.286 25.0998Z" fill="black"/>
<path d="M19.9274 23.7181H21.4894L22.3852 26.1961L23.2582 23.7181H24.8145V27.8462H23.5454V25.788L22.9195 27.8462H21.8283L21.2024 25.788V27.8462H19.9274V23.7181Z" fill="black"/>
</svg>
