<svg width="51" height="50" viewBox="0 0 51 50" fill="none" xmlns="http://www.w3.org/2000/svg">
<path d="M46.2097 0H4.41284C2.14761 0 0.311279 1.83633 0.311279 4.10156V45.8984C0.311279 48.1637 2.14761 50 4.41284 50H46.2097C48.4749 50 50.3113 48.1637 50.3113 45.8984V4.10156C50.3113 1.83633 48.4749 0 46.2097 0Z" fill="url(#paint0_linear_15_29)"/>
<path d="M38.4114 9.85859C39.7829 10.0616 40.7295 11.339 40.5271 12.7109C40.3247 14.0835 39.0489 15.0325 37.677 14.8294C35.2477 14.4697 31.6082 18.2503 27.5337 26.0239C22.332 35.9479 17.4904 40.6763 12.3931 40.299C11.0103 40.1966 9.97319 38.9916 10.0751 37.6084C10.1772 36.2249 11.3803 35.1853 12.7633 35.2878C15.2804 35.4741 18.9777 31.5324 23.0887 23.6892C28.3237 13.7019 33.231 9.0915 38.4114 9.85859Z" fill="white"/>
<defs>
<linearGradient id="paint0_linear_15_29" x1="0.311205" y1="1666.3" x2="15059.7" y2="11718.1" gradientUnits="userSpaceOnUse">
<stop stop-color="#2BEAED"/>
<stop offset="1" stop-color="#0FCCCE"/>
</linearGradient>
</defs>
</svg>
