<svg width="9" height="16" viewBox="0 0 9 16" fill="none" xmlns="http://www.w3.org/2000/svg">
<path d="M1.14661 1.12643C1.03915 1.25292 0.953897 1.40316 0.895728 1.56855C0.837559 1.73395 0.807617 1.91126 0.807617 2.09032C0.807617 2.26938 0.837559 2.44668 0.895728 2.61208C0.953897 2.77748 1.03915 2.92772 1.14661 3.05421L5.6442 8.35901L1.14661 13.6638C0.929871 13.9195 0.808108 14.2662 0.808108 14.6277C0.808108 14.9892 0.929871 15.336 1.14661 15.5916C1.36335 15.8472 1.65731 15.9908 1.96383 15.9908C2.27034 15.9908 2.56431 15.8472 2.78105 15.5916L8.10165 9.31606C8.20911 9.18958 8.29437 9.03934 8.35254 8.87394C8.4107 8.70854 8.44064 8.53124 8.44064 8.35217C8.44064 8.17311 8.4107 7.99581 8.35254 7.83041C8.29437 7.66501 8.20911 7.51477 8.10165 7.38829L2.78105 1.11276C2.34056 0.593214 1.59869 0.593215 1.14661 1.12643Z" fill="white"/>
</svg>
