<svg width="51" height="50" viewBox="0 0 51 50" fill="none" xmlns="http://www.w3.org/2000/svg">
<path d="M23.6739 0.0134552C23.5664 0.0232289 23.2243 0.057437 22.9164 0.0818713C15.8147 0.722051 9.1627 4.55336 4.9496 10.442C2.60356 13.7162 1.10307 17.4303 0.536108 21.3642C0.335717 22.7374 0.311279 23.143 0.311279 25.0049C0.311279 26.8668 0.335717 27.2724 0.536108 28.6456C1.89486 38.0333 8.57619 45.9207 17.6378 48.843C19.2604 49.3659 20.9711 49.7227 22.9164 49.9377C23.6739 50.0208 26.9486 50.0208 27.7062 49.9377C31.064 49.5663 33.9085 48.7355 36.714 47.3037C37.1441 47.0838 37.2272 47.0251 37.1686 46.9762C37.1295 46.9469 35.2966 44.4888 33.0972 41.5176L29.0992 36.1176L24.0894 28.7043C21.3328 24.6286 19.0649 21.2958 19.0454 21.2958C19.0258 21.2909 19.0063 24.5846 18.9965 28.6065C18.9819 35.6485 18.977 35.9319 18.889 36.0981C18.7619 36.3375 18.6642 36.4353 18.4589 36.5428C18.3025 36.621 18.1656 36.6356 17.4276 36.6356H16.5821L16.3572 36.4939C16.2106 36.4011 16.1031 36.2789 16.0298 36.1372L15.9271 35.9173L15.9516 16.316L16.1031 16.1255C16.1813 16.0228 16.3474 15.8909 16.4647 15.8274C16.6651 15.7296 16.7433 15.7198 17.5889 15.7198C18.586 15.7198 18.7521 15.7589 19.0112 16.0424C19.0845 16.1206 21.7971 20.206 25.0425 25.1271C28.2878 30.0481 32.7257 36.7676 34.9056 40.0662L38.8646 46.0624L39.0649 45.9305C40.8391 44.7772 42.716 43.1352 44.2018 41.4248C47.3641 37.7938 49.4022 33.3663 50.0864 28.6456C50.2868 27.2724 50.3113 26.8668 50.3113 25.0049C50.3113 23.143 50.2868 22.7374 50.0864 21.3642C48.7277 11.9765 42.0464 4.0891 32.9848 1.16676C31.3865 0.648748 29.6857 0.292007 27.7795 0.0769845C27.3103 0.0281158 24.0796 -0.0256398 23.6739 0.0134552ZM33.9085 15.1334C34.1431 15.2507 34.3338 15.4755 34.4022 15.7101C34.4413 15.8371 34.4511 18.5542 34.4413 24.6775L34.4266 33.4641L32.8773 31.089L31.323 28.714V22.3269C31.323 18.1975 31.3426 15.8762 31.3719 15.7638C31.4501 15.4902 31.6212 15.2751 31.8558 15.1481C32.0561 15.0455 32.1295 15.0357 32.8968 15.0357C33.6202 15.0357 33.7473 15.0455 33.9085 15.1334Z" fill="white"/>
</svg>
