<svg width="44" height="50" viewBox="0 0 44 50" fill="none" xmlns="http://www.w3.org/2000/svg">
<path d="M42.261 11.0789L24.1276 0.491238C22.984 -0.163746 21.495 -0.163746 20.3424 0.491238L2.01536 11.0789C0.835178 11.7616 0 13.0447 0 14.4171V35.5643C0 36.9367 0.856972 38.2202 2.03716 38.9066L6.87921 41.6721C9.19353 42.8183 10.0114 42.8183 11.0646 42.8183C14.4912 42.8183 16.4486 40.7347 16.4486 37.1005V16.2228C16.4486 15.928 16.296 15.4893 16.0082 15.4893H13.6959C13.4031 15.4893 12.7477 15.928 12.7477 16.2224V37.1C12.7477 38.711 11.2985 40.3142 8.59028 38.9525L3.58703 36.0526C3.41267 35.9575 3.28972 35.7661 3.28972 35.5643V14.4171C3.28972 14.2178 3.51794 14.0176 3.69353 13.9155L21.9613 3.34604C22.132 3.24887 22.3828 3.24887 22.5531 3.34604L40.598 13.913C40.7707 14.0176 40.7099 14.2116 40.7099 14.4171V35.5643C40.7099 35.7661 40.7851 35.9625 40.6145 36.0597L22.4856 46.6353C22.3302 46.7292 22.1373 46.7292 21.9671 46.6353L17.3175 43.8446C17.1773 43.7628 17.0107 43.7334 16.8763 43.8091C15.5826 44.5463 15.3441 44.6443 14.1306 45.0674C13.832 45.172 13.3916 45.3535 14.2992 45.865L20.3843 49.4848C20.9653 49.8222 21.6243 49.9999 22.2953 50C22.9705 50 23.6317 49.8238 24.2144 49.4848L42.2606 38.9066C43.4407 38.2153 44 36.9367 44 35.5643V14.4171C44 13.0447 43.4408 11.7649 42.261 11.0789ZM27.9256 32.2133C23.1037 32.2133 22.0415 30.8756 21.6875 28.4645C21.6464 28.2048 21.4272 27.8943 21.1644 27.8943H18.8077C18.5162 27.8943 18.2818 28.2499 18.2818 28.5418C18.2818 31.629 19.9509 35.3695 27.926 35.3695C33.6991 35.3695 37.0089 33.1139 37.0089 29.122C37.0089 25.164 34.3496 24.1252 28.7509 23.3801C23.0918 22.628 22.5169 22.2479 22.5169 20.9148C22.5169 19.8157 23.0038 18.3499 27.1941 18.3499C30.9382 18.3499 32.3182 19.1579 32.8861 21.6955C32.9346 21.9341 33.1513 22.1053 33.396 22.1053H35.7621C35.9077 22.1053 36.0467 22.0462 36.1487 21.9415C36.2474 21.8291 36.2996 21.6881 36.2864 21.5367C35.92 17.1669 33.0329 15.1304 27.1936 15.1304C21.9996 15.1304 18.9011 17.336 18.9011 21.0331C18.9011 25.0432 21.984 26.1514 26.9699 26.6472C32.9346 27.2352 33.3985 28.1118 33.3985 29.2915C33.3985 31.3404 31.7627 32.2133 27.9256 32.2133Z" fill="#83CD29"/>
</svg>
