<svg width="9" height="16" viewBox="0 0 9 16" fill="none" xmlns="http://www.w3.org/2000/svg">
<path d="M7.85339 1.12643C7.96085 1.25292 8.0461 1.40316 8.10427 1.56855C8.16244 1.73395 8.19238 1.91126 8.19238 2.09032C8.19238 2.26938 8.16244 2.44668 8.10427 2.61208C8.0461 2.77748 7.96085 2.92772 7.85339 3.05421L3.3558 8.35901L7.85339 13.6638C8.07013 13.9195 8.19189 14.2662 8.19189 14.6277C8.19189 14.9892 8.07013 15.336 7.85339 15.5916C7.63665 15.8472 7.34269 15.9908 7.03617 15.9908C6.72966 15.9908 6.43569 15.8472 6.21895 15.5916L0.898348 9.31606C0.790889 9.18958 0.705635 9.03933 0.647465 8.87394C0.589296 8.70854 0.559356 8.53124 0.559356 8.35217C0.559356 8.17311 0.589296 7.99581 0.647465 7.83041C0.705635 7.66501 0.790889 7.51477 0.898348 7.38829L6.21895 1.11276C6.65944 0.593214 7.40131 0.593215 7.85339 1.12643Z" fill="white"/>
</svg>
