<svg width="37" height="50" viewBox="0 0 37 50" fill="none" xmlns="http://www.w3.org/2000/svg">
<path d="M15.5655 49.9682C10.9432 49.6308 6.37466 48.4528 3.57281 46.8756C1.97687 45.9773 0.760992 44.8734 0.283873 43.8894L0 43.304V6.57817L0.224627 6.11636C1.22845 4.05278 4.4321 2.19246 8.90422 1.07625C10.4223 0.697319 12.6139 0.319965 14.4018 0.129679C16.2274 -0.0646783 21.0665 -0.0351082 22.8876 0.18182C27.7278 0.757606 31.8465 2.04665 34.3847 3.78015C35.3636 4.44865 36.368 5.51831 36.7082 6.2546L37 6.88588L36.9501 43.5007L36.7159 43.9824C36.5871 44.2474 36.198 44.7686 35.8513 45.1407C33.7408 47.4061 29.2137 49.0819 23.2756 49.7959C22.0653 49.9414 16.8073 50.0588 15.5655 49.9682ZM24.0837 34.2336C24.066 34.1867 23.375 33.5634 22.5482 32.8485C21.7214 32.1336 21.0094 31.515 20.9658 31.4739C20.9223 31.4329 21.0751 31.2875 21.3053 31.1508C21.5355 31.0142 21.9766 30.634 22.2855 30.3061C23.1888 29.347 23.615 28.1623 23.615 26.6104C23.615 25.0827 23.1553 23.8501 22.2347 22.9092C21.3068 21.9607 20.2414 21.5532 18.6899 21.5532C16.2984 21.5532 14.4617 22.9662 13.8755 25.2569C13.6739 26.0448 13.6749 27.6369 13.8776 28.3356C14.4063 30.158 15.8461 31.4816 17.6381 31.7924C18.2445 31.8975 18.3266 31.9429 18.74 32.4005C18.9857 32.6725 19.4899 33.2154 19.8604 33.607L20.5342 34.3189H22.3251C23.3102 34.3189 24.1015 34.2806 24.0837 34.2336ZM17.9418 29.1562C17.5106 28.9285 17.3476 28.7519 17.1018 28.2458C16.9119 27.8549 16.8794 27.6326 16.8773 26.7087C16.8751 25.7699 16.9046 25.567 17.1029 25.1594C17.4273 24.4923 17.8744 24.1765 18.5659 24.1259C19.5285 24.0552 20.0841 24.5335 20.3754 25.6831C20.7324 27.0925 20.3398 28.591 19.4831 29.0883C19.0337 29.3492 18.3633 29.3787 17.9418 29.1562ZM10.0034 31.7724C11.8811 31.4118 12.947 30.3061 12.947 28.7189C12.947 27.3107 12.2589 26.4902 10.3569 25.6305C9.26815 25.1384 8.87378 24.8295 8.87378 24.4685C8.87378 24.1694 9.24803 23.8416 9.68372 23.7592C10.1091 23.6788 11.2374 23.8772 11.9036 24.1497L12.4621 24.3782V21.8747L11.856 21.7385C11.4814 21.6544 10.6942 21.6039 9.79511 21.6065C8.52159 21.6065 8.27223 21.6379 7.79297 21.8306C6.39306 22.3933 5.72875 23.3519 5.73938 24.7938C5.74933 26.1437 6.45262 26.9857 8.20296 27.7432C9.23572 28.1901 9.64966 28.5304 9.64966 28.9326C9.64966 29.7872 8.24328 29.8924 6.75427 29.1491C6.34649 28.9456 5.98011 28.7625 5.94011 28.7422C5.90011 28.7219 5.86739 29.3066 5.86739 30.0416C5.86739 31.3718 5.86878 31.3783 6.10665 31.47C7.00242 31.8148 8.98223 31.9684 10.0034 31.7724ZM31.4705 29.4091H28.0761V21.6515H25.0697V31.6676H31.4705V29.4091ZM20.9965 10.749C23.9837 10.5392 26.2228 10.1432 28.1933 9.47608C30.1562 8.81151 31.3158 8.00737 31.5752 7.1308C31.6752 6.79302 31.668 6.66489 31.5283 6.29453C30.9021 4.63418 27.4037 3.35851 22.0578 2.8413C19.7711 2.62001 15.6124 2.69175 13.4321 2.98996C10.1052 3.4451 7.40524 4.29051 6.20474 5.25301C3.77625 7.20016 6.34439 9.34175 12.3167 10.3498C14.9062 10.7868 18.2612 10.9412 20.9965 10.749Z" fill="#00BCF2"/>
</svg>
