<svg width="1502" height="715" viewBox="0 0 1502 715" fill="none" xmlns="http://www.w3.org/2000/svg">
<g filter="url(#filter0_f_38_9176)">
<path fill-rule="evenodd" clip-rule="evenodd" d="M256.809 592.984H31V684H268.099C315.905 684 354.659 647.953 354.659 603.486V470.024H688.667C736.473 470.024 775.227 433.977 775.227 389.51V256.049H1110.65C1158.45 256.049 1197.21 220.001 1197.21 175.535V122.588H1471V31.5715H1185.92C1138.11 31.5715 1099.36 67.619 1099.36 112.086V165.033H763.937C716.131 165.033 677.377 201.08 677.377 245.547V379.008H343.368C295.563 379.008 256.809 415.056 256.809 459.523V592.984Z" fill="#009DCE"/>
</g>
<path fill-rule="evenodd" clip-rule="evenodd" d="M256.809 575.412H31V666.429H268.099C315.905 666.429 354.659 630.381 354.659 585.914V452.453H688.667C736.473 452.453 775.227 416.406 775.227 371.939V238.477H1110.65C1158.45 238.477 1197.21 202.43 1197.21 157.963V105.016H1471V14H1185.92C1138.11 14 1099.36 50.0475 1099.36 94.5143V147.461H763.937C716.131 147.461 677.377 183.509 677.377 227.976V361.437H343.368C295.563 361.437 256.809 397.484 256.809 441.951V575.412Z" fill="#343434"/>
<path fill-rule="evenodd" clip-rule="evenodd" d="M31 618.295V623.546H50.2878V618.295H31ZM70.9869 623.546H109.563V618.295H70.9869V623.546ZM130.262 623.546H168.837V618.295H130.262V623.546ZM189.536 623.546H228.112V618.295H189.536V623.546ZM248.811 623.546H268.099C274.206 623.546 280.004 622.286 285.203 620.027L287.76 618.916L285.371 614.158L282.813 615.27C278.347 617.21 273.363 618.295 268.099 618.295H248.811V623.546ZM303.579 604.202L304.773 601.823C307.201 596.988 308.556 591.595 308.556 585.914V563.294H302.911V585.914C302.911 590.811 301.745 595.447 299.658 599.601L298.464 601.98L303.579 604.202ZM308.556 536.553V491.312H302.911V536.553H308.556ZM308.556 464.572V441.951C308.556 437.055 309.723 432.419 311.809 428.265L313.004 425.886L307.889 423.663L306.694 426.042C304.266 430.878 302.911 436.271 302.911 441.951V464.572H308.556ZM326.097 413.707L328.654 412.596C333.12 410.656 338.104 409.571 343.368 409.571H365.374V404.32H343.368C337.262 404.32 331.463 405.58 326.265 407.839L323.708 408.95L326.097 413.707ZM390.422 409.571H434.434V404.32H390.422V409.571ZM459.482 409.571H503.494V404.32H459.482V409.571ZM528.542 409.571H572.554V404.32H528.542V409.571ZM597.602 409.571H641.614V404.32H597.602V409.571ZM666.662 409.571H688.667C694.774 409.571 700.572 408.31 705.771 406.052L708.328 404.94L705.939 400.183L703.382 401.294C698.916 403.234 693.932 404.32 688.667 404.32H666.662V409.571ZM724.147 390.227L725.342 387.848C727.77 383.012 729.125 377.619 729.125 371.939V349.318H723.48V371.939C723.48 376.835 722.313 381.471 720.227 385.626L719.032 388.004L724.147 390.227ZM729.125 322.578V277.337H723.48V322.578H729.125ZM729.125 250.596V227.976C729.125 223.079 730.291 218.443 732.378 214.289L733.572 211.91L728.457 209.688L727.263 212.067C724.834 216.902 723.48 222.295 723.48 227.976V250.596H729.125ZM746.665 199.732L749.222 198.621C753.688 196.68 758.673 195.595 763.937 195.595H786.021V190.344H763.937C757.83 190.344 752.032 191.604 746.833 193.863L744.276 194.974L746.665 199.732ZM811.195 195.595H855.363V190.344H811.195V195.595ZM880.537 195.595H924.705V190.344H880.537V195.595ZM949.879 195.595H994.047V190.344H949.879V195.595ZM1019.22 195.595H1063.39V190.344H1019.22V195.595ZM1088.56 195.595H1110.65C1116.75 195.595 1122.55 194.335 1127.75 192.076L1130.31 190.965L1127.92 186.207L1125.36 187.318C1120.9 189.259 1115.91 190.344 1110.65 190.344H1088.56V195.595ZM1146.13 176.251L1147.32 173.872C1149.75 169.037 1151.1 163.644 1151.1 157.963V137.713H1145.46V157.963C1145.46 162.86 1144.29 167.496 1142.21 171.65L1141.01 174.029L1146.13 176.251ZM1151.1 114.765V94.5145C1151.1 89.6178 1152.27 84.9819 1154.36 80.8278L1155.55 78.449L1150.44 76.2267L1149.24 78.6055C1146.81 83.441 1145.46 88.8342 1145.46 94.5145V114.765H1151.1ZM1168.64 66.2704L1171.2 65.1594C1175.67 63.2189 1180.65 62.1337 1185.92 62.1337H1208.54V56.8828H1185.92C1179.81 56.8828 1174.01 58.1431 1168.81 60.4018L1166.26 61.5129L1168.64 66.2704ZM1234.57 62.1337H1279.81V56.8828H1234.57V62.1337ZM1305.84 62.1337H1351.08V56.8828H1305.84V62.1337ZM1377.11 62.1337H1422.35V56.8828H1377.11V62.1337ZM1448.38 62.1337H1471V56.8828H1448.38V62.1337Z" fill="white"/>
<defs>
<filter id="filter0_f_38_9176" x="0" y="0.571472" width="1502" height="714.429" filterUnits="userSpaceOnUse" color-interpolation-filters="sRGB">
<feFlood flood-opacity="0" result="BackgroundImageFix"/>
<feBlend mode="normal" in="SourceGraphic" in2="BackgroundImageFix" result="shape"/>
<feGaussianBlur stdDeviation="15.5" result="effect1_foregroundBlur_38_9176"/>
</filter>
</defs>
</svg>
