<svg width="51" height="50" viewBox="0 0 51 50" fill="none" xmlns="http://www.w3.org/2000/svg">
<path d="M50.6852 13.849C50.6823 13.3461 50.6767 12.8435 50.6628 12.3401C50.6335 11.245 50.5688 10.1399 50.3742 9.05652C50.1767 7.95626 49.8538 6.93321 49.345 5.93373C48.8455 4.95219 48.1925 4.05399 47.4136 3.27508C46.6349 2.49617 45.7367 1.84329 44.7547 1.34356C43.7561 0.835313 42.7328 0.512536 41.6336 0.315031C40.5496 0.119799 39.4445 0.0554798 38.3486 0.0258457C37.8454 0.0122072 37.3427 0.00648247 36.8397 0.00336752C36.2426 0 35.6451 0 35.0482 0H16.3293C15.7318 0 15.135 0 14.5381 0.00345171C14.0349 0.00656666 13.5316 0.0122914 13.0292 0.0259299C12.7553 0.0333384 12.4807 0.0429358 12.206 0.0561533C11.382 0.0958901 10.5567 0.168713 9.7441 0.315115C8.91965 0.463286 8.13788 0.681838 7.37732 0.99628C7.12383 1.10101 6.87261 1.21652 6.62291 1.34356C5.88644 1.71836 5.19694 2.17929 4.56982 2.71489C4.36078 2.89346 4.15865 3.08027 3.964 3.27499C3.18493 4.0539 2.53196 4.9521 2.03248 5.93365C1.52365 6.93313 1.20121 7.95618 1.00353 9.05643C0.809057 10.1398 0.744401 11.2449 0.714935 12.34C0.701128 12.8435 0.695319 13.3461 0.692036 13.8489C0.688248 14.4461 0.688753 15.0435 0.688753 15.6405V34.3592C0.688753 34.9568 0.688163 35.5536 0.692036 36.1512C0.695319 36.6541 0.701128 37.1567 0.714935 37.6593C0.744401 38.755 0.808973 39.8603 1.00353 40.9432C1.20121 42.0431 1.52365 43.0671 2.03248 44.0663C2.53196 45.0481 3.18493 45.9461 3.964 46.7246C4.74249 47.5039 5.64094 48.1567 6.623 48.6567C7.62172 49.1651 8.64486 49.4874 9.74435 49.6849C10.8277 49.8799 11.9336 49.9447 13.0293 49.974C13.5317 49.9874 14.035 49.9934 14.5382 49.9963C15.1351 50.0006 15.7319 50 16.3294 50H35.0482C35.6451 50 36.2426 50.0006 36.8396 49.9963C37.3426 49.9934 37.8453 49.9874 38.3485 49.974C39.4444 49.9447 40.5495 49.8798 41.6335 49.6849C42.7327 49.4874 43.756 49.165 44.7546 48.6567C45.7366 48.1568 46.6348 47.5039 47.4135 46.7246C48.1924 45.946 48.8455 45.0481 49.3449 44.0663C49.8537 43.0671 50.1766 42.0432 50.3741 40.9432C50.5687 39.8603 50.6335 38.755 50.6628 37.6593C50.6766 37.1567 50.6821 36.6542 50.6851 36.1512C50.689 35.5536 50.6887 34.9568 50.6887 34.3592V15.6405C50.6888 15.0435 50.689 14.4461 50.6852 13.849Z" fill="#F05138"/>
<path d="M40.3081 30.8639C40.3069 30.8624 40.3058 30.8613 40.3046 30.8598C40.3599 30.6716 40.417 30.4845 40.4654 30.2916C42.5406 22.0236 37.4758 12.2485 28.905 7.10167C32.6609 12.1933 34.3216 18.3604 32.8461 23.7536C32.7145 24.2347 32.5563 24.6964 32.3815 25.1451C32.1917 25.0204 31.9526 24.8789 31.6315 24.7018C31.6315 24.7018 23.1059 19.4378 13.8655 10.1271C13.623 9.88265 18.7928 17.5162 24.66 23.7149C21.8958 22.1636 14.1922 16.5586 9.31538 12.095C9.91455 13.0943 10.6272 14.0564 11.4106 14.9828C15.4832 20.1476 20.7943 26.5202 27.1573 31.4136C22.6866 34.1496 16.3694 34.3623 10.0796 31.4165C8.52393 30.6874 7.06142 29.8077 5.70759 28.8083C8.37003 33.0669 12.4706 36.7412 17.4613 38.8862C23.413 41.444 29.3315 41.2705 33.7396 38.9282L33.7361 38.9332C33.7563 38.9205 33.7818 38.9066 33.8027 38.8937C33.9837 38.7964 34.1634 38.6973 34.3391 38.5927C36.457 37.4933 40.6403 36.378 42.8857 40.7469C43.4356 41.8161 44.6041 36.1499 40.3081 30.8639Z" fill="white"/>
</svg>
