<svg width="50" height="50" viewBox="0 0 50 50" fill="none" xmlns="http://www.w3.org/2000/svg">
<path d="M9.1664 42.2919L0.833605 36.0418C0.573797 35.8489 0.362964 35.5973 0.218165 35.3079C0.073365 35.0184 -0.00136117 34.699 1.877e-05 34.3754V15.6251C-0.00136117 15.3015 0.073365 14.982 0.218165 14.6926C0.362964 14.4031 0.573797 14.1517 0.833605 13.9587L9.1664 7.70864C8.94255 7.91884 8.77339 8.18049 8.67359 8.4709C8.5738 8.76132 8.5464 9.07168 8.59374 9.37507V40.6254C8.5464 40.9289 8.5738 41.2392 8.67359 41.5296C8.77339 41.8201 8.94255 42.0816 9.1664 42.2919Z" fill="#5E438F"/>
<path d="M49.0723 8.67744C48.7292 8.45192 48.3271 8.33237 47.9162 8.3337C47.6501 8.33155 47.3861 8.38193 47.1393 8.48195C46.8927 8.58195 46.6683 8.72964 46.4788 8.91651L46.3334 9.06261L29.7084 25.0003L20.51 33.8232L11.9998 41.9793L11.8538 42.1255C11.6644 42.3125 11.44 42.4605 11.1933 42.5608C10.9465 42.6608 10.6825 42.7112 10.4163 42.709C9.96555 42.7081 9.52731 42.5619 9.1664 42.2919L0.833605 36.0418C1.25694 36.3598 1.78545 36.5046 2.31175 36.4465C2.83805 36.3884 3.32242 36.132 3.66627 35.7293L12.9163 24.9901L20.51 16.1775L33.8122 0.728915C34.0055 0.500132 34.2463 0.316352 34.5181 0.190439C34.7895 0.0645258 35.0856 -0.000467961 35.3849 1.0914e-05C35.7957 -0.0013152 36.1978 0.118233 36.5412 0.343766L49.0723 8.67744Z" fill="url(#paint0_linear_19_325)"/>
<path d="M49.0723 41.3231L36.5724 49.6569C36.1474 49.9346 35.6362 50.0494 35.133 49.9805C34.6297 49.9116 34.1684 49.6637 33.8335 49.2817L20.51 33.8232L12.9163 24.9901L3.66627 14.2604C3.31936 13.8618 2.83451 13.6092 2.30909 13.5532C1.78366 13.4973 1.25665 13.6421 0.833605 13.9587L9.1664 7.70864C9.52731 7.43866 9.96555 7.29242 10.4163 7.29154C10.6825 7.28927 10.9465 7.33968 11.1933 7.43985C11.44 7.53999 11.6644 7.68793 11.8538 7.87514L11.9998 8.02121L20.51 16.1775L29.7084 25.0003L46.3334 40.938L46.4788 41.0842C46.6683 41.2709 46.8927 41.4186 47.1393 41.5186C47.3861 41.6186 47.6501 41.669 47.9162 41.6668C48.3271 41.6682 48.7292 41.5486 49.0723 41.3231Z" fill="url(#paint1_linear_19_325)"/>
<path d="M50 10.4164V39.5838C50.0003 39.9278 49.9158 40.2661 49.754 40.5696C49.5923 40.8728 49.3579 41.1318 49.0723 41.3231L36.5724 49.6566C36.8583 49.4654 37.0924 49.2064 37.2539 48.9029C37.4157 48.5994 37.5001 48.2608 37.4998 47.9168V2.08351C37.4953 1.7371 37.4055 1.39713 37.2383 1.09368C37.0711 0.790233 36.8317 0.532743 36.5412 0.343766L49.0726 8.67733C49.3573 8.86936 49.5908 9.12829 49.7526 9.43148C49.9141 9.73465 49.9991 10.0728 50 10.4164Z" fill="url(#paint2_linear_19_325)"/>
<defs>
<linearGradient id="paint0_linear_19_325" x1="41.2439" y1="2.01444e-06" x2="-1.93553" y2="38.4768" gradientUnits="userSpaceOnUse">
<stop stop-color="#7252AA"/>
<stop offset="1" stop-color="#7252AA"/>
</linearGradient>
<linearGradient id="paint1_linear_19_325" x1="3.99478" y1="2.13413" x2="45.1069" y2="42.8785" gradientUnits="userSpaceOnUse">
<stop stop-color="#AE7FE2"/>
<stop offset="1" stop-color="#9A70D4"/>
</linearGradient>
<linearGradient id="paint2_linear_19_325" x1="43.1224" y1="-0.661845" x2="43.1224" y2="49.6147" gradientUnits="userSpaceOnUse">
<stop stop-color="#D59DFF"/>
<stop offset="1" stop-color="#C18EF1"/>
</linearGradient>
</defs>
</svg>
