<svg width="50" height="50" viewBox="0 0 50 50" fill="none" xmlns="http://www.w3.org/2000/svg">
<path d="M18.9642 49.8844C18.1201 49.6863 17.4136 49.2229 16.425 48.2187C14.7735 46.5412 13.4333 45.8429 11.1039 45.4458C8.68746 45.0339 7.61362 44.1447 6.96803 42.0207C6.17114 39.3989 5.33824 38.1433 3.50817 36.805C1.43218 35.2868 0.899531 33.948 1.40624 31.5218C1.87556 29.2746 1.69584 27.677 0.742675 25.6229C-0.394584 23.172 -0.254193 21.8624 1.36105 19.8544C2.84184 18.0136 3.30661 16.7968 3.5284 14.1803C3.75218 11.5399 4.49416 10.4566 6.6793 9.57992C8.50301 8.84829 10.0632 7.57817 10.9281 6.12096C11.9283 4.43588 12.0744 4.24269 12.6941 3.78489C13.6942 3.04617 14.5027 2.84145 16.0427 2.93705C18.7176 3.10311 20.1514 2.7851 21.9477 1.62728C24.2899 0.117642 25.71 0.117642 28.0522 1.62728C29.8486 2.7851 31.2823 3.10311 33.9573 2.93705C36.4869 2.77999 37.5395 3.43748 39.0814 6.13777C39.8455 7.47594 41.4072 8.77833 43.1169 9.50261C45.5514 10.5343 46.2589 11.4758 46.4385 13.9227C46.633 16.5726 47.1817 18.0542 48.6354 19.8544C50.2542 21.8588 50.3954 23.1696 49.257 25.6229C48.3043 27.677 48.1242 29.2746 48.5936 31.5218C49.1005 33.948 48.5676 35.2868 46.4918 36.805C44.6618 38.1433 43.829 39.3989 43.032 42.0207C42.3864 44.1447 41.3125 45.0339 38.896 45.4458C36.5617 45.8438 35.22 46.5442 33.575 48.2242C31.7514 50.0859 30.4441 50.3935 27.8947 49.5587C25.8095 48.8765 24.2041 48.8735 22.1273 49.5486C20.6724 50.0213 19.897 50.1037 18.9642 49.8844Z" fill="black"/>
<path d="M18.9642 49.3897C18.1201 49.1912 17.4136 48.7278 16.425 47.7236C14.7735 46.0465 13.4333 45.3478 11.1039 44.9511C8.68746 44.5393 7.61362 43.6496 6.96803 41.526C6.17114 38.9039 5.33824 37.6483 3.50817 36.3099C1.43218 34.7917 0.899531 33.4529 1.40624 31.0268C1.87556 28.7796 1.69584 27.1819 0.742675 25.1278C-0.394584 22.6769 -0.254193 21.3673 1.36105 19.3594C2.84184 17.5185 3.30661 16.3017 3.5284 13.6853C3.75218 11.0448 4.49416 9.96155 6.6793 9.0849C8.50301 8.35323 10.0632 7.08311 10.9281 5.6259C11.9283 3.94082 12.0744 3.74763 12.6941 3.28988C13.6942 2.55111 14.5027 2.34639 16.0427 2.44199C18.7176 2.60805 20.1514 2.29008 21.9477 1.13223C24.2899 -0.37741 25.71 -0.37741 28.0522 1.13223C29.8486 2.29008 31.2823 2.60805 33.9573 2.44199C36.4869 2.28493 37.5395 2.94242 39.0814 5.64271C39.8455 6.98092 41.4072 8.28327 43.1169 9.00759C45.5514 10.0392 46.2589 10.9808 46.4385 13.4276C46.633 16.0775 47.1817 17.5592 48.6354 19.3594C50.2542 21.3637 50.3954 22.6746 49.257 25.1278C48.3043 27.1819 48.1242 28.7796 48.5936 31.0268C49.1005 33.4529 48.5676 34.7917 46.4918 36.3099C44.6618 37.6483 43.829 38.9039 43.032 41.526C42.3864 43.6496 41.3125 44.5393 38.896 44.9511C36.5617 45.3487 35.22 46.0495 33.575 47.7291C31.7514 49.5912 30.4441 49.8984 27.8947 49.064C25.8095 48.3814 24.2041 48.3784 22.1273 49.0535C20.6724 49.5262 19.897 49.6086 18.9642 49.3897Z" fill="white"/>
<path d="M33.9623 22.6527C33.8049 22.3346 33.9398 21.9529 34.2611 21.797C34.5824 21.6412 34.9679 21.7747 35.1254 22.0928C35.2828 22.411 35.1479 22.7927 34.8266 22.9486C34.5053 23.1044 34.1198 22.9708 33.9623 22.6527ZM37.0885 29.0148C36.931 28.6967 37.0659 28.315 37.3873 28.1591C37.7085 28.0033 38.0941 28.1369 38.2515 28.455C38.409 28.7731 38.274 29.1548 37.9527 29.3107C37.6314 29.4666 37.2459 29.3329 37.0885 29.0148ZM37.3615 20.76C35.3053 19.3062 32.6225 18.9309 30.139 19.882L36.9278 33.7037C39.2154 32.3581 40.5714 30.0328 40.687 27.5357L43.2636 27.717C43.4113 27.7265 43.5401 27.6184 43.5495 27.4688C43.5593 27.3225 43.4501 27.1953 43.2991 27.1858L40.69 27.0012C40.6644 25.9133 40.4011 24.8031 39.8772 23.7343C39.3535 22.6686 38.6339 21.7779 37.7856 21.0845L39.2507 18.9372C39.3342 18.8164 39.3021 18.6509 39.18 18.5682C39.058 18.4855 38.8909 18.5173 38.8073 18.6382L37.3615 20.7568" fill="#3DDC84"/>
<path d="M31.1029 25.9642C29.188 26.8803 27.1285 27.3448 24.9823 27.3448C20.1469 27.3448 15.7549 24.9144 13.1942 21.0463C12.9918 20.7409 12.5742 20.6677 12.2754 20.884L9.81105 22.6813C9.53154 22.8849 9.46728 23.273 9.66325 23.5593C13.0271 28.5313 18.7236 31.6456 24.9823 31.6456C27.7871 31.6456 30.4827 31.038 32.992 29.8387L31.1029 25.9642Z" fill="#4285F4"/>
<path d="M26.2932 10.6728V7.75577C26.2932 7.02731 25.6956 6.43563 24.9599 6.43563C24.2241 6.43563 23.6265 7.02731 23.6265 7.75577V10.6728H26.2932Z" fill="#4285F4"/>
<path d="M21.4899 16.367L12.3235 35.0461C12.1243 35.4502 12.0183 35.8891 12.0086 36.3377L11.954 38.7839C11.9411 39.4169 12.6801 39.7732 13.1749 39.3724L15.0833 37.8201C15.4336 37.5369 15.7163 37.1807 15.9155 36.7767L24.9501 18.3615L21.4931 16.3701L21.4899 16.367Z" fill="#4285F4"/>
<path d="M37.9141 36.3345C37.9045 35.886 37.7952 35.4469 37.5993 35.043L28.4329 16.3637L24.9758 18.3615L34.0105 36.7703C34.2097 37.1743 34.4924 37.5274 34.8426 37.8137L36.7511 39.366C37.2458 39.7668 37.988 39.4106 37.972 38.7775L37.9174 36.3313L37.9141 36.3345Z" fill="#4285F4"/>
<path d="M24.9597 10.4406C22.7525 10.4406 20.9597 12.2188 20.9597 14.401C20.9597 16.5833 22.7557 18.3615 24.9597 18.3615C27.1637 18.3615 28.9598 16.5833 28.9598 14.401C28.9598 12.2188 27.1637 10.4406 24.9597 10.4406ZM24.9597 16.5801C23.7485 16.5801 22.7589 15.6035 22.7589 14.401C22.7589 13.1986 23.7452 12.222 24.9597 12.222C26.1742 12.222 27.1605 13.1986 27.1605 14.401C27.1605 15.6035 26.1742 16.5801 24.9597 16.5801Z" fill="#073042"/>
</svg>
