<svg width="50" height="50" viewBox="0 0 50 50" fill="none" xmlns="http://www.w3.org/2000/svg">
<path d="M43.8281 10.2168L28.0469 0.842244C26.1621 -0.280748 23.8379 -0.280748 21.9531 0.842244L6.17188 10.2168C4.28711 11.33 3.125 13.4002 3.125 15.6364V34.3758C3.125 36.612 4.28711 38.6822 6.17188 39.7954L21.9531 49.1602C22.8906 49.7168 23.9453 50 25 50C26.0547 50 27.0996 49.7168 28.0469 49.1602L43.8281 39.7954C45.7129 38.6724 46.875 36.612 46.875 34.3758V15.6364C46.875 13.4002 45.7129 11.33 43.8281 10.2168Z" fill="white"/>
<path d="M43.8281 10.2168L28.0469 0.842244C27.1094 0.285631 26.0547 0.00244132 25 0.00244132C23.9453 0.00244132 22.9004 0.285631 21.9531 0.842244L6.17188 10.2168C4.28711 11.33 3.125 13.4002 3.125 15.6364V34.3758C3.125 36.612 4.28711 38.6822 6.17188 39.7954L21.9531 49.1602C22.8906 49.7168 23.9453 50 25 50C26.0547 50 27.0996 49.7168 28.0469 49.1602L43.8281 39.7954C45.7129 38.6724 46.875 36.612 46.875 34.3758V15.6364C46.875 13.4002 45.7129 11.33 43.8281 10.2168ZM22.5098 48.2032L6.72852 38.8384C5.18555 37.9205 4.22852 36.2116 4.22852 34.3758V15.6364C4.22852 13.8006 5.18555 12.0917 6.72852 11.1738L22.5098 1.80899C23.2715 1.3598 24.1309 1.12543 25 1.12543C25.8691 1.12543 26.7383 1.3598 27.4902 1.80899L43.2715 11.1738C44.5703 11.9452 45.4492 13.283 45.6934 14.7869C45.166 13.6736 43.9941 13.3612 42.6172 14.1717L27.6855 23.3997C25.8203 24.4837 24.4531 25.7141 24.4531 27.9503V46.3478C24.4531 47.6954 24.9902 48.5645 25.8301 48.8184C25.5566 48.8672 25.2832 48.8965 25 48.8965C24.1309 48.8868 23.2617 48.6524 22.5098 48.2032Z" fill="#283037"/>
<path d="M39.6973 36.1823L35.7617 38.5357C35.6543 38.5943 35.5762 38.6627 35.5762 38.7896V39.8149C35.5762 39.9419 35.6641 39.9907 35.7617 39.9321L39.7559 37.5104C39.8633 37.4518 39.873 37.3346 39.873 37.2077V36.2995C39.8828 36.1725 39.7949 36.1237 39.6973 36.1823Z" fill="#4DA825"/>
<path d="M31.3281 27.5304C31.4551 27.462 31.5625 27.5499 31.5625 27.7159L31.5723 29.0733C32.1387 28.8487 32.6367 28.7901 33.0859 28.8877C33.1836 28.917 33.2227 29.044 33.1836 29.2002L32.8809 30.4013C32.8613 30.4892 32.8027 30.5869 32.7441 30.6455C32.7148 30.6748 32.6953 30.6943 32.666 30.7041C32.627 30.7236 32.5879 30.7334 32.5488 30.7236C32.3438 30.6748 31.8555 30.5674 31.0938 30.958C30.293 31.3681 30.0098 32.0614 30.0195 32.579C30.0293 33.1942 30.3418 33.3895 31.4355 33.3992C32.8906 33.4188 33.5254 34.0633 33.5352 35.528C33.5547 36.9733 32.7832 38.5162 31.6016 39.4732L31.6309 40.8208C31.6309 40.9868 31.5234 41.1723 31.3965 41.2309L30.5957 41.6899C30.4688 41.7582 30.3613 41.6801 30.3613 41.5141L30.3516 40.186C29.668 40.4692 28.9746 40.5376 28.5352 40.3618C28.4473 40.3325 28.418 40.2056 28.4473 40.0688L28.7402 38.8482C28.7598 38.7505 28.8184 38.6529 28.8867 38.5943C28.916 38.5748 28.9355 38.5552 28.9648 38.5357C29.0137 38.5162 29.0527 38.5064 29.0918 38.5259C29.5703 38.6822 30.1758 38.6138 30.7617 38.3111C31.5039 37.9303 32.002 37.1784 31.9922 36.4167C31.9824 35.7331 31.6113 35.4499 30.7129 35.4402C29.5703 35.4402 28.4961 35.2156 28.4766 33.5262C28.4668 32.1395 29.1895 30.6943 30.332 29.7764L30.3223 28.419C30.3223 28.253 30.4199 28.0675 30.5566 27.9991L31.3281 27.5304Z" fill="white"/>
</svg>
