<svg width="44" height="50" viewBox="0 0 44 50" fill="none" xmlns="http://www.w3.org/2000/svg">
<path d="M43.9978 14.7C43.9974 13.8593 43.8196 13.1164 43.4599 12.4788C43.1067 11.8518 42.5776 11.3263 41.868 10.9108C36.0104 7.49591 30.1471 4.09141 24.2914 0.672992C22.7127 -0.248496 21.1821 -0.214902 19.6151 0.719815C17.2836 2.11005 5.61057 8.87187 2.13215 10.9089C0.699642 11.7474 0.00258234 13.0306 0.00223803 14.6985C0 21.5661 0.00223803 28.4336 0 35.3014C0 36.1237 0.170607 36.8521 0.514402 37.4801C0.867839 38.1261 1.40428 38.666 2.13026 39.0909C5.60885 41.128 17.2834 47.8893 19.6144 49.2799C21.1821 50.2151 22.7127 50.2485 24.2919 49.3267C30.1478 45.9081 36.0114 42.5038 41.8699 39.0888C42.5959 38.6641 43.1323 38.1238 43.4858 37.4784C43.829 36.8504 44 36.1219 44 35.2995C44 35.2995 44 21.5678 43.9978 14.7Z" fill="#A179DC"/>
<path d="M22.0673 24.933L0.514402 37.4801C0.867839 38.1261 1.40428 38.666 2.13026 39.0909C5.60885 41.128 17.2834 47.8893 19.6144 49.2799C21.1821 50.2151 22.7127 50.2485 24.2919 49.3267C30.1478 45.9081 36.0114 42.5038 41.8699 39.0888C42.5959 38.6641 43.1323 38.1238 43.4858 37.4784L22.0673 24.933Z" fill="#280068"/>
<path d="M43.9978 14.7C43.9974 13.8593 43.8196 13.1164 43.4599 12.4788L22.0673 24.933L43.4858 37.4784C43.829 36.8504 43.9997 36.1219 44 35.2995C44 35.2995 44 21.5678 43.9978 14.7Z" fill="#390091"/>
<path d="M34.757 20.2425V22.5877H37.0766V20.2425H38.2364V22.5877H40.5559V23.7604H38.2364V26.1056H40.5559V27.2783H38.2364V29.6235H37.0766V27.2783H34.757V29.6235H33.5972V27.2783H31.2776V26.1056H33.5972V23.7604H31.2776V22.5877H33.5972V20.2425H34.757ZM37.0766 23.7604H34.757V26.1056H37.0766V23.7604Z" fill="white"/>
<path d="M22.1146 8.46396C28.1648 8.46396 33.4472 11.7862 36.2765 16.7243L36.2489 16.6768L29.1305 20.8209C27.728 18.4199 25.1568 16.7997 22.2075 16.7663L22.1146 16.7658C17.6169 16.7658 13.9706 20.4523 13.9706 24.9998C13.9706 26.487 14.3627 27.8809 15.0447 29.085C16.4484 31.5628 19.0874 33.2341 22.1146 33.2341C25.1605 33.2341 27.8145 31.5416 29.2112 29.0373L29.1772 29.0974L36.2849 33.2606C33.4866 38.1569 28.2767 41.4689 22.2968 41.5349L22.1146 41.5359C16.0453 41.5359 10.748 38.1932 7.92576 33.229C6.548 30.8055 5.75969 27.9959 5.75969 24.9998C5.75969 15.8674 13.0819 8.46396 22.1146 8.46396Z" fill="white"/>
</svg>
