<svg width="71" height="50" viewBox="0 0 71 50" fill="none" xmlns="http://www.w3.org/2000/svg">
<path d="M69.6161 18.885C69.4209 18.7271 67.6524 17.4033 63.9201 17.4033C62.9322 17.4033 61.9443 17.4762 60.9685 17.6583C60.2489 12.7155 56.1508 10.3108 55.9678 10.2015L54.9677 9.61858L54.309 10.5659C53.4797 11.8411 52.882 13.2377 52.5283 14.7193C51.8575 17.5369 52.26 20.1844 53.6992 22.4433C51.9673 23.4028 49.1742 23.6457 48.6131 23.6578H2.49695C1.28947 23.6578 0.31372 24.6294 0.31372 25.8317C0.264933 29.8516 0.947955 33.8472 2.3262 37.6242C3.91178 41.7777 6.27797 44.826 9.35157 46.6963C12.7911 48.7973 18.3894 49.9996 24.744 49.9996C27.6102 50.0117 30.4765 49.7446 33.2939 49.2223C37.2091 48.5058 40.9779 47.1456 44.4418 45.1903C47.2959 43.5386 49.8694 41.4498 52.0526 38.9844C55.6995 34.8673 57.8827 30.2767 59.5049 26.2082H60.1513C64.1519 26.2082 66.6156 24.6172 67.9695 23.2813C68.872 22.4312 69.5795 21.3989 70.0308 20.2452L70.3113 19.4072L69.6161 18.885ZM6.76584 22.334H12.9496C13.2424 22.334 13.4863 22.0912 13.4863 21.7997V16.3224C13.4863 16.031 13.2424 15.7881 12.9496 15.7759H6.76584C6.47311 15.7759 6.22918 16.0188 6.22918 16.3103V21.7997C6.22918 22.1033 6.47311 22.334 6.76584 22.334ZM15.2914 22.334H21.4752C21.7679 22.334 22.0119 22.0912 22.0119 21.7997V16.3224C22.0119 16.031 21.7679 15.7881 21.4752 15.7759H15.2914C14.9865 15.7759 14.7426 16.0188 14.7426 16.3224V21.7997C14.7426 22.1033 14.9865 22.334 15.2914 22.334ZM23.9268 22.3462H30.1106C30.4033 22.3462 30.6472 22.1033 30.6472 21.8118V16.3346C30.6472 16.0431 30.4033 15.8002 30.1106 15.7881H23.9268C23.634 15.7881 23.3901 16.031 23.3901 16.3224V21.8118C23.3901 22.1033 23.634 22.334 23.9268 22.3462ZM32.4767 22.3462H38.6605C38.9533 22.3462 39.1972 22.1033 39.2094 21.8118V16.3346C39.2094 16.031 38.9655 15.7881 38.6605 15.7881H32.4767C32.184 15.7881 31.9401 16.031 31.9401 16.3224V21.8118C31.9401 22.1033 32.1718 22.3462 32.4767 22.3462ZM15.2792 14.4522H21.463C21.7557 14.4522 21.9997 14.2093 21.9997 13.9056V8.4284C21.9997 8.13693 21.7557 7.89403 21.463 7.89403H15.2792C14.9743 7.89403 14.7426 8.13693 14.7304 8.4284V13.9056C14.7426 14.2093 14.9865 14.4522 15.2792 14.4522ZM23.9268 14.4522H30.1106C30.4033 14.4522 30.6472 14.2093 30.6472 13.9056V8.4284C30.6472 8.13693 30.4033 7.89403 30.1106 7.89403H23.9268C23.634 7.89403 23.3901 8.13693 23.3901 8.4284V13.9056C23.3901 14.2093 23.634 14.4522 23.9268 14.4522ZM32.4767 14.4522H38.6605C38.9655 14.4522 39.1972 14.2093 39.2094 13.9056V8.4284C39.2094 8.12478 38.9655 7.89403 38.6605 7.89403H32.4767C32.184 7.89403 31.9401 8.13693 31.9401 8.4284V13.9056C31.9401 14.2093 32.1718 14.4522 32.4767 14.4522ZM32.4767 6.57027H38.6605C38.9655 6.57027 39.2094 6.32737 39.2094 6.02376V0.534365C39.2094 0.242893 38.9655 0 38.6605 0H32.4767C32.184 0 31.9401 0.242893 31.9401 0.534365V6.02376C31.9401 6.32737 32.1718 6.57027 32.4767 6.57027ZM41.0877 22.3462H47.2715C47.5642 22.3462 47.8081 22.1033 47.8081 21.8118V16.3346C47.8081 16.031 47.5642 15.8002 47.2715 15.7881H41.0877C40.795 15.7881 40.551 16.031 40.551 16.3224V21.8118C40.551 22.1033 40.795 22.3462 41.0877 22.3462Z" fill="#0091E2"/>
</svg>
