<svg width="35" height="50" viewBox="0 0 35 50" fill="none" xmlns="http://www.w3.org/2000/svg">
<path d="M8.81128 50C13.5033 50 17.3113 46.2667 17.3113 41.6667V33.3333H8.81128C4.11928 33.3333 0.311279 37.0667 0.311279 41.6667C0.311279 46.2667 4.11928 50 8.81128 50Z" fill="#0ACF83"/>
<path d="M0.311279 25C0.311279 20.4 4.11928 16.6667 8.81128 16.6667H17.3113V33.3333H8.81128C4.11928 33.3333 0.311279 29.6 0.311279 25Z" fill="#A259FF"/>
<path d="M0.311279 8.33333C0.311279 3.73333 4.11928 0 8.81128 0H17.3113V16.6667H8.81128C4.11928 16.6667 0.311279 12.9333 0.311279 8.33333Z" fill="#F24E1E"/>
<path d="M17.3113 0H25.8113C30.5033 0 34.3113 3.73333 34.3113 8.33333C34.3113 12.9333 30.5033 16.6667 25.8113 16.6667H17.3113V0Z" fill="#FF7262"/>
<path d="M34.3113 25C34.3113 29.6 30.5033 33.3333 25.8113 33.3333C21.1193 33.3333 17.3113 29.6 17.3113 25C17.3113 20.4 21.1193 16.6667 25.8113 16.6667C30.5033 16.6667 34.3113 20.4 34.3113 25Z" fill="#1ABCFE"/>
</svg>
