<svg width="41" height="50" viewBox="0 0 41 50" fill="none" xmlns="http://www.w3.org/2000/svg">
<mask id="mask0_15_36" style="mask-type:luminance" maskUnits="userSpaceOnUse" x="0" y="0" width="41" height="50">
<path d="M40.6887 23.0721L27.2295 36.5361L40.6887 50H25.3089L11.8449 36.5361L25.3089 23.0721H40.6887ZM25.3089 0L0.311279 24.9976L8.00359 32.6899L40.6887 0H25.3089Z" fill="white"/>
</mask>
<g mask="url(#mask0_15_36)">
<path d="M11.8496 36.5361L19.5371 44.2284L40.6885 23.0721H25.3087L11.8496 36.5361Z" fill="#39CEFD"/>
</g>
<mask id="mask1_15_36" style="mask-type:luminance" maskUnits="userSpaceOnUse" x="0" y="0" width="41" height="50">
<path d="M40.6887 23.0721L27.2295 36.5361L40.6887 50H25.3089L11.8449 36.5361L25.3089 23.0721H40.6887ZM25.3089 0L0.311279 24.9976L8.00359 32.6899L40.6887 0H25.3089Z" fill="white"/>
</mask>
<g mask="url(#mask1_15_36)">
<path d="M25.3089 0H40.6887L8.00359 32.6899L0.311279 24.9976L25.3089 0Z" fill="#39CEFD"/>
</g>
<mask id="mask2_15_36" style="mask-type:luminance" maskUnits="userSpaceOnUse" x="0" y="0" width="41" height="50">
<path d="M40.6887 23.0721L27.2295 36.5361L40.6887 50H25.3089L11.8449 36.5361L25.3089 23.0721H40.6887ZM25.3089 0L0.311279 24.9976L8.00359 32.6899L40.6887 0H25.3089Z" fill="white"/>
</mask>
<g mask="url(#mask2_15_36)">
<path d="M19.5374 44.2283L25.309 49.9952H40.6888L27.2297 36.536L19.5374 44.2283Z" fill="#03569B"/>
</g>
<mask id="mask3_15_36" style="mask-type:luminance" maskUnits="userSpaceOnUse" x="0" y="0" width="41" height="50">
<path d="M40.6887 23.0721L27.2295 36.5361L40.6887 50H25.3089L11.8449 36.5361L25.3089 23.0721H40.6887ZM25.3089 0L0.311279 24.9976L8.00359 32.6899L40.6887 0H25.3089Z" fill="white"/>
</mask>
<g mask="url(#mask3_15_36)">
<path d="M30.9458 40.2763L27.2297 36.536L19.5374 44.2283L30.9458 40.2763Z" fill="url(#paint0_linear_15_36)"/>
</g>
<mask id="mask4_15_36" style="mask-type:luminance" maskUnits="userSpaceOnUse" x="0" y="0" width="41" height="50">
<path d="M40.6887 23.0721L27.2295 36.5361L40.6887 50H25.3089L11.8449 36.5361L25.3089 23.0721H40.6887ZM25.3089 0L0.311279 24.9976L8.00359 32.6899L40.6887 0H25.3089Z" fill="white"/>
</mask>
<g mask="url(#mask4_15_36)">
<path d="M11.8489 36.5334L19.5414 28.8409L27.2344 36.5334L19.5414 44.226L11.8489 36.5334Z" fill="#16B9FD"/>
</g>
<path d="M40.6887 23.0721L27.2295 36.5361L40.6887 50H25.3089L11.8449 36.5361L25.3089 23.0721H40.6887ZM25.3089 0L0.311279 24.9976L8.00359 32.6899L40.6887 0H25.3089Z" fill="url(#paint1_radial_15_36)"/>
<defs>
<linearGradient id="paint0_linear_15_36" x1="21.7822" y1="45.7128" x2="27.5113" y2="39.9838" gradientUnits="userSpaceOnUse">
<stop stop-color="#1A237E" stop-opacity="0.4"/>
<stop offset="1" stop-color="#1A237E" stop-opacity="0"/>
</linearGradient>
<radialGradient id="paint1_radial_15_36" cx="0" cy="0" r="1" gradientUnits="userSpaceOnUse" gradientTransform="translate(1.44562 3.40785) scale(61.1689)">
<stop stop-color="white" stop-opacity="0.1"/>
<stop offset="1" stop-color="white" stop-opacity="0"/>
</radialGradient>
</defs>
</svg>
