<svg width="51" height="50" viewBox="0 0 51 50" fill="none" xmlns="http://www.w3.org/2000/svg">
<path d="M49.3692 22.7733L27.5384 0.943918C27.2394 0.644672 26.8843 0.407286 26.4935 0.245324C26.1026 0.0833625 25.6837 0 25.2607 0C24.8376 0 24.4187 0.0833625 24.0279 0.245324C23.6371 0.407286 23.282 0.644672 22.9829 0.943918L18.4513 5.47772L24.2007 11.2271C24.8766 10.9976 25.6033 10.9617 26.2986 11.1237C26.9938 11.2856 27.6299 11.6389 28.1348 12.1435C28.6425 12.6518 28.997 13.2927 29.1576 13.9929C29.3182 14.6932 29.2785 15.4245 29.043 16.1032L34.5861 21.6448C35.265 21.409 35.9966 21.3693 36.697 21.5302C37.3975 21.6911 38.0384 22.0461 38.5463 22.5546C38.9021 22.9103 39.1844 23.3327 39.3769 23.7975C39.5695 24.2623 39.6686 24.7605 39.6686 25.2636C39.6686 25.7667 39.5695 26.2649 39.3769 26.7297C39.1844 27.1946 38.9021 27.6169 38.5463 27.9726C37.827 28.6912 36.8519 29.0948 35.8352 29.0948C34.8184 29.0948 33.8433 28.6912 33.124 27.9726C32.5897 27.4374 32.2256 26.7561 32.0776 26.0144C31.9297 25.2727 32.0045 24.5038 32.2926 23.8045L27.1233 18.6368V32.2387C27.6689 32.5082 28.1424 32.9039 28.5047 33.3929C28.867 33.8819 29.1075 34.4501 29.2064 35.0506C29.3054 35.651 29.2598 36.2664 29.0735 36.8458C28.8873 37.4251 28.5657 37.9518 28.1354 38.3821C27.7796 38.7379 27.3573 39.0201 26.8925 39.2127C26.4277 39.4053 25.9295 39.5044 25.4264 39.5044C24.9232 39.5044 24.4251 39.4053 23.9602 39.2127C23.4954 39.0201 23.0731 38.7379 22.7174 38.3821C22.3615 38.0264 22.0792 37.604 21.8866 37.1391C21.694 36.6743 21.5949 36.176 21.5949 35.6728C21.5949 35.1696 21.694 34.6714 21.8866 34.2065C22.0792 33.7416 22.3615 33.3193 22.7174 32.9635C23.0759 32.6043 23.502 32.3197 23.9711 32.1261V18.399C23.5039 18.2065 23.0793 17.9237 22.7218 17.5667C22.3642 17.2097 22.0807 16.7855 21.8876 16.3186C21.6944 15.8517 21.5954 15.3513 21.5963 14.846C21.5971 14.3407 21.6978 13.8406 21.8925 13.3743L16.2236 7.70436L1.25334 22.671C0.650084 23.2755 0.311279 24.0946 0.311279 24.9485C0.311279 25.8025 0.650084 26.6216 1.25334 27.2261L23.0852 49.0582C23.6896 49.6613 24.5086 50 25.3624 50C26.2163 50 27.0352 49.6613 27.6396 49.0582L49.3692 27.3284C49.9725 26.7239 50.3113 25.9048 50.3113 25.0508C50.3113 24.1969 49.9725 23.3778 49.3692 22.7733Z" fill="#F03C2E"/>
</svg>
