<svg width="23" height="50" viewBox="0 0 23 50" fill="none" xmlns="http://www.w3.org/2000/svg">
<path d="M11.5354 0.136557L12.8425 2.64262C13.1363 3.10508 13.4547 3.51443 13.8297 3.89565C14.929 5.00389 15.9537 6.1867 16.8968 7.43601C19.1114 10.4045 20.6052 13.7012 21.6719 17.2665C22.3117 19.4445 22.6591 21.6787 22.6851 23.9379C22.7922 30.6921 20.524 36.4916 15.9509 41.3116C15.2071 42.0759 14.4034 42.7772 13.548 43.4083C13.095 43.4083 12.8808 43.0536 12.694 42.7271C12.354 42.1216 12.1277 41.4566 12.0267 40.7663C11.866 39.9492 11.7604 39.1321 11.8125 38.2884V37.9072C11.7757 37.8259 11.3763 0.32873 11.5354 0.136557Z" fill="#599636"/>
<path d="M11.5354 0.0537507C11.4819 -0.0556161 11.4283 0.0271901 11.3747 0.0803112C11.4008 0.627145 11.214 1.11461 10.9217 1.5802C10.6003 2.04266 10.1748 2.39732 9.74783 2.77855C7.37557 4.87526 5.50836 7.40789 4.01307 10.2405C2.02343 14.0527 0.997998 18.1383 0.707204 22.4396C0.574051 23.991 1.18778 29.4656 1.66682 31.0452C2.97387 35.2386 5.32164 38.7524 8.36274 41.8022C9.10962 42.5365 9.90853 43.2177 10.735 43.8723C10.9753 43.8723 11.0013 43.6536 11.0564 43.4911C11.1618 43.1434 11.2421 42.7883 11.2967 42.4287L11.8324 38.3446L11.5354 0.0537507Z" fill="#6CAC48"/>
<path d="M12.8425 45.0676C12.8961 44.4426 13.1899 43.9239 13.5098 43.4067C13.1884 43.2708 12.9496 43.0005 12.7629 42.699C12.6019 42.4135 12.4686 42.1126 12.365 41.8006C11.9915 40.657 11.912 39.457 11.8048 38.2884V37.5806C11.6717 37.69 11.6441 38.6149 11.6441 38.7524C11.5662 39.9876 11.4057 41.2159 11.1635 42.4287C11.084 42.9193 11.0304 43.4083 10.735 43.8442C10.735 43.8989 10.735 43.9536 10.761 44.0348C11.2416 45.4785 11.3732 46.9487 11.4543 48.447V48.9938C11.4543 49.6469 11.4283 49.5094 11.9594 49.7281C12.1737 49.8094 12.4124 49.8375 12.6267 50C12.7874 50 12.8134 49.8641 12.8134 49.7547L12.7338 48.8563V46.3503C12.7078 45.9128 12.7874 45.4785 12.841 45.0691L12.8425 45.0676Z" fill="#C2BFBF"/>
</svg>
