<svg width="44" height="50" viewBox="0 0 44 50" fill="none" xmlns="http://www.w3.org/2000/svg">
<path d="M1.96391 3.94737H42.0361C43.1207 3.94737 44 4.82068 44 5.89797C44 6.97525 43.1207 7.84857 42.0361 7.84857H1.96391C0.879275 7.84857 0 6.97525 0 5.89797C0 4.82068 0.879275 3.94737 1.96391 3.94737Z" fill="#696969"/>
<path d="M2.31319 0H10.3703V1.84672H2.31319V0Z" fill="#009FE3"/>
<path d="M12.8494 0H20.9064V1.84672H12.8494V0Z" fill="#C7D302"/>
<path d="M23.2461 0H31.3032V1.84672H23.2461V0Z" fill="#F07E16"/>
<path d="M33.5989 0H41.656V1.84672H33.5989V0Z" fill="#DF2815"/>
<path d="M33.5989 9.87996H41.656V23.4072H33.5989V9.87996Z" fill="#DF2815"/>
<path d="M23.2461 9.87996H31.3182V31.856H23.2461V9.87996Z" fill="#F07E16"/>
<path d="M12.8494 9.87996H20.906V42.7978H12.8494V9.87996Z" fill="#C7D302"/>
<path d="M2.31319 9.87996H10.3703V50H2.31319V9.87996Z" fill="#009FE3"/>
</svg>
