<svg width="51" height="50" viewBox="0 0 51 50" fill="none" xmlns="http://www.w3.org/2000/svg">
<path d="M25.2263 0C13.4213 0 13.2945 4.58227 13.2945 5.52545C13.2945 6.95636 13.2945 11.25 13.2945 11.25H25.4536V12.9686C25.4536 12.9686 12.7936 12.9686 8.46492 12.9686C4.85173 12.9686 0.311279 15.1655 0.311279 24.9005C0.311279 33.8427 3.8531 37.3009 7.42764 37.3009C8.48901 37.3009 11.6749 37.3009 11.6749 37.3009C11.6749 37.3009 11.6749 32.8623 11.6749 31.335C11.6749 28.8391 12.9117 24.2186 18.6776 24.2186C25.9095 24.2186 27.7554 24.2186 30.7372 24.2186C32.5108 24.2186 37.5126 23.4477 37.5126 17.6705C37.5126 11.5559 37.5126 9.53864 37.5126 6.66182C37.5131 5.22864 37.2681 0 25.2263 0ZM18.5217 3.84955C19.7317 3.84955 20.7095 4.82682 20.7095 6.03727C20.7095 7.24682 19.7317 8.225 18.5217 8.225C17.3117 8.225 16.334 7.24727 16.334 6.03727C16.334 4.82682 17.3117 3.84955 18.5217 3.84955Z" fill="url(#paint0_linear_15_98)"/>
<path d="M25.3963 50C37.1958 50 37.3426 45.3314 37.3426 44.4745C37.3426 43.0436 37.3426 38.75 37.3426 38.75H25.169V37.0314C25.169 37.0314 37.9108 37.0314 42.1576 37.0314C45.7981 37.0314 50.3113 34.7795 50.3113 25.0995C50.3113 14.4986 45.5213 12.6991 43.1949 12.6991C42.1331 12.6991 38.9476 12.6991 38.9476 12.6991C38.9476 12.6991 38.9476 17.3427 38.9476 18.665C38.9476 21.1609 37.7517 25.7814 31.9449 25.7814C24.7131 25.7814 23.0922 25.7814 19.8849 25.7814C18.1158 25.7814 13.1095 26.6432 13.1095 32.3295C13.1095 38.9091 13.1095 40.6318 13.1095 43.3382C13.1095 45.7155 14.5622 50 25.3963 50ZM32.1013 46.1505C30.8913 46.1505 29.9136 45.1727 29.9136 43.9627C29.9136 42.7527 30.8908 41.775 32.1013 41.775C33.3108 41.775 34.289 42.7527 34.289 43.9627C34.289 45.1727 33.3108 46.1505 32.1013 46.1505Z" fill="url(#paint1_linear_15_98)"/>
<defs>
<linearGradient id="paint0_linear_15_98" x1="6.60901" y1="5.98706" x2="39.9233" y2="39.5023" gradientUnits="userSpaceOnUse">
<stop stop-color="#387EB8"/>
<stop offset="1" stop-color="#366994"/>
</linearGradient>
<linearGradient id="paint1_linear_15_98" x1="20.1008" y1="20.3986" x2="46.7472" y2="45.9272" gradientUnits="userSpaceOnUse">
<stop stop-color="#FFE052"/>
<stop offset="1" stop-color="#FFC331"/>
</linearGradient>
</defs>
</svg>
